<mxfile host="Electron" agent="Mozilla/5.0 (Windows NT 10.0; Win64; x64) AppleWebKit/537.36 (KHTML, like Gecko) draw.io/28.1.2 Chrome/138.0.7204.243 Electron/37.4.0 Safari/537.36" version="28.1.2">
  <diagram name="PÃ¡gina-1" id="r7y6A8d50K94a71-h81b">
    <mxGraphModel dx="1577" dy="688" grid="0" gridSize="10" guides="1" tooltips="1" connect="1" arrows="1" fold="1" page="0" pageScale="1" pageWidth="2339" pageHeight="3300" math="0" shadow="0">
      <root>
        <mxCell id="0" />
        <mxCell id="1" parent="0" />
        <mxCell id="YRsGhfHMuzotypktMuR_-36" value="" style="rounded=1;whiteSpace=wrap;html=1;" vertex="1" parent="1">
          <mxGeometry x="895" y="970" width="1547" height="973" as="geometry" />
        </mxCell>
        <mxCell id="YRsGhfHMuzotypktMuR_-2" value="" style="shape=image;verticalLabelPosition=bottom;labelBackgroundColor=default;verticalAlign=top;aspect=fixed;imageAspect=0;image=data:image/png,iVBORw0KGgoAAAANSUhEUgAABEAAAAI8CAMAAADGES79AAAAqFBMVEUAAABl//9Av/83yP8yw/80vOwvvfAxuvMsvuouuu0su+4st+ssuOwsuOoruOwruOort+srt+ort+srt+kqt+oqt+oqt+krtuoqtuoqt+kptukqtukqtuoqtukqtuoptukptukqtukptukptukqtukptukptukqtukptukptukptukptukptukptukptugptukptukptukptukptukptugqtukptekptehvrp6EAAAAN3RSTlMAAgQFCg0QFBgbICUqMDU7QEZLUFZdZWluc3p/hIiNlJqgpquwtbi9w8nO09fd4OXp7fL1+fv9UIT5+AAAKJlJREFUeNrt3dlC6joYhuEgo0yiIMogg4LMUxl6/3e2D5Zr2ZakTUphU3ifw70Xih2+Jn+SRggAAAAAAAAAAAAAAAAAAAAAAAAAAAAAAAAAAAAAAAAAAAAAAAAAAAAAAAAAAAAAAAAAAAAAAAAAAAAAAAAAAAAAAAAAAAAAAAAAAAAAAAAAAAAAAAAAAAAAAAAAAAAAAAAAAAAAAAAAAAAAAAAAAAAAAAAAAAAAAAAAAAAAAAAAAAAAAAAAAAAAAAAAAAAAAAAAAAAAAAAAAAAAAAAAAAAAAAAAAAAAAAAAAAAAAAAAAAAAAAAAAAAAAAAAAAAAAAAAAAAAAAAAAAAAAAAAAAAAAAAAAAAAAAAAAAAAAAAAAAAAAAAAAAAAAAAAAAAAAAAAAAAAAAAAAAAAAAAAAAAAAAAAAAAAAAAAQPzl3waz9W456b2k9D6QqvYmy916NnjLc/SAu1b+tv+x2pngD2Ta1u8nvsscQeBupfq2y6Ya9Inaxv2JfoqjCNxp72Vqe334fiDxcfSBKf0Y4C5lF7ZtliAdyQcWWY4kcH+SY1umrv5EXfqBcZJjCdydhjQObCun+sCjJf9Eg2MJ3F0HZiOPA7un+kRf8QGLTgxwb5qKOLAPijzIHVSfaHI0gTszUcWBqgpSV35gytEE7ktOGQf2QP6JgfoTOY4ncFfK6jiYyT8xU3/iieMJ3JWqOg428k9s1J+ocTyBu6KuaNi2/BM+H6hzPAEChAABQIAAIEAAECAACBACBAABAoAAAUCAACBAABAgBAgAAgRAWLn8Y+p6AiSVyz9yToBYKLQmlm3b9qz/cg0B8tKb2bZtW5NWgXMDXLmiY6s5e/6W/H8DJPk2d/yz7yLnB7hiifbefWvPq/9ngFTn7n+3/0hwjoBrlfqSbNtS/r8CpCzZeGbAVpjAtbY/vqW392f+/wiQ/Kf0n37TBgGuk2qnht1H5tIBkvnYKf5ti/MEXKPyQf2a0/fkJQMk+a5+geqhzJmKU6u2/P45mi2tg71ffKSP/u/7dLsaXnIaULa3ssYtdlM9hy+fW/yomnrOAPHWTt2+OFNxkap/u7YzXZTc/78w/amz5S/1jZ5WfzYOYEpA9AoH25e7mnq+ACmP/b/HgZMfk/hoHrUj564aeHL6979PLtQkSC///kJKaZFr2EGc1dRzBYiidspm3LFTWQZVsFoX3920zeqJ8xkE3rn2rpM5b4Coa6fBO9/hqjSlDdqR85/MAzcji9pv4/aTMxS1pa3hXzX1HAHiVzt1WHKurl9LY9Mxx8Nid5lvZV06se6J1s1r24vquQLEv3YauPMdrsi76upRXRGX+Vo8hS6SzrZGNTXyAAmqnf6yOFfX7mmvM4RGgNyUha3tMx91gGjUTuVPMVyhlLI7/EyA3KyB/i1s7zqNKAOkqVM7pYgaG23VqesJAuRmNe2oGAeImSbn6rplt/ITt28lCJDblT/EI0AOec7VdfNWUOejr16322kUfK4IAiT+vuMRIN+cqSs3cZXcq5ng25kAuQXFfRwCZM9rya79OnKerVet25kAue3a1zUFSJvzFKPLqCEIkPvxMLj+ABk8cJ7i04OZPxAg9yQ5vPYAGfImh6vnmJH4LgiQu5Jo7q85QPZNVmFfvbzjhD0SIPemNL7eABmXOD/Xr+rowQgC5P7UFtcZIIsq5yYOHBMS+wTIXVZC3jfXFyDHb2XFdeppv/qJALlVmc7uugLE8SYjXDnHq3WrBMi9Mlkde/4A+WT2enw4JjQ/ESD3qzy+lgAZs5FDnDimgRQIkHtWXVxDgMypncbL7Pfc5QiQuxa2mhphgFA7jR3Hy4TSBMidC1dNjSxAZHtq4sqtf89fkgC5e2GqqVEFCLVTAoQAiT3zamo0AULtlAAhQG6C7n4LUQYItVMChAC5FYbV1NMDZE3tlAAhQG5IxuS96acGyJbaKQFCgNwYg2rqiQFC7ZQAIUBukG41VbH1pGYvaETtlAC5rgDJPDeqWU5sBPSqqYp9i2fUTm9XpfU1+OHo6/79T4PPRjm+AVLd2La9rXOSI/Dwvg69c5zGC1fXb7zxNI6yGue2l45pgLR5m3eUMh/boEtFkdX14NppmuMbR4mJVmkrngHS+rehGX3raARVU/eKJVS5gNet9qmdxtSbXnWrGscAafgl4L1LVnvjtbVZfDYKRp8rj3zbqqqP9SKunRYaX4uNtR73qiEnjTy+ND+/J7OVtd/MR51aTu9Tue50u+gcNZZytfbndLnZ7TaL6Wer9hjB+Uk91TvD6WK9260X02Gn/pQKPCT9uTVrna3gl23PrFn36E8b6QVIL5oAST3VO8NZ4FEp9GfWtJs9MUCc2bjQvD6e37vfs8V6u9+s5uN+s3arO6GlP37HRQ7DitFnfaqpW+Wt86ju/MxfjL9+Zfi7l+/GvPOTb4yOyjmTpsZt//LnqC1cl8VT9+iAzLuVk05PqTE6Ol67UdM3Z6t/PrE80yVbXtm2bdvWs+e/a46vzSIIkHJrvNc6KvU/h2LzfFKA1DVGF10JW+tJ7oz1wPAJHQu1lWfLWaNXnj+8qaqpPnsZvkZXOy16NvJd1Uw+nXtXjEgfhs9BH/17t0z/fedcayn/act22HZItqEcs5o3lC2lwlZrP6fQ5a+/p9zydDaXmoubTg2QfFP5hpqFJ/vLf2NmkzshQF5d+82PgppGtaG6lz5tPN5WfrSOb56e0Z+YlldTO36f6UibLG3j5sNj73D0Y5r6d2d3H74v1fUm5WPPp6q864Yp7BQ/fctFh69SUB/xLGOOv2ev6/4fmtuRdU8LkPLw4HtUBmVpr6obPkBq7l/o/4rofNfy//MPX7dUhZXfyq2Uyc/I949/RMs0tuy+cTKnWubR5fh00woahvbrAUzdXfpUO2BQav+RMvzzCp+HwHvxS/oVf5/Pk3NUzNaqasCrXoBUTgmQskZKDf4F68PvWZmGDpCqO8ZnfpW2Yl9nR7Zx5Vbyo6b4C1d1o63fvNXU4I5EzdPzGRnvFZWorxRfXqsX87QKPs+Hrvqm37ta5GWN1vvSqL6T+tDaG/DQkTTbHMl4hiqIY8MoK0wV9XiTGP0AyfQ067Q/i6gKjgQPGyDP7tVfG59Dmuke9L6fPbiNYsij+iE8MytnPjuuHa1SprN0a4+ejb/6i3pCq6XRlmnobd25UL5P3HY+5d/1Vhh29EeJnrXfQyvJJcd0jI/oL5ovW9nAyX5r5EcqfIDU1rpH5ecRVlT8ZIMAqbiblhufJ11d++vZ9r59C+vMu74DqmaNgmLze7HdGgymJqu98Xq7XXw3zB+TpZFRJ/sovbQXBO7fgwMk/aX70yaa3bSHjsk7D7pJdb90FfkmwtmdX2+x1l+sfjgexn//02ree/E9lr4BkuqbHJV+KpIAeXI/Yy11/SL3bRuZxn9YN+vfbz/0r7Rg/Nj3byluA2ZypCcG57kXFCBLg9csLbVarrmR2aXozaWS4/89R33wnTMifKuBUS+mK8zMjsqsEEGAlD35od7h5nllG4r/sprAmYMhBkbOL90OnET/5t/0Mbs/+4mgi97k7fIaFfiS8aW49vzU2RmnTU4CV0ueJ0AqlvGxrpwcICX31JatuvjZDHM1dBLxDhCNhvy6furfWJsebNu2D9NaJN858abR0fw0Hnnaj3uN+muj3Rtu9NogQV/BUlzvm8CGa1k+H2s7n4xGk7k8PC33le2Yd72N+BFQ0B7PjDZAXrbmR2X7cmKAFN3X2lbZnEuoiwHWYrZWNpiH8V71pVWom72c9DtaYWZo+NROtfoLvpONK8cVt17t99VniVJjojGs49NsG9QrhbQQ6ULl9es4RpYB/ULZk3bWqeZ/gjxRqHbnsnvF1QfaBy5pDKvt6OLmLhcgtb3/Ucm/dCQ9nH3rpAApuJuCO+WdkJSuQl70X0u5pBBCJLLFalfaAxun4hwgmkVj8yFWaX4ETg45tXbqaDdptsF/hqyPru+nwSFoWEdVN/qsui6J5HPPO0IzTRp0um3bXn0cFU6KnaNTt3X1zgc+8z5P4xivHoqLBcjzUX6s2kdHJd/yHUw3DpC8Oz/2ylfUJCT5MX49umiyNUmZdRTnBNHtVYavpraMppcF1k51+5aWXxvGkzUN6RksT53/6EM3QIaSDsrRqmW/QaK8NxmWdendl3z3Fko2zhvKMVfDjnRxc8VvVe3ZAqRkHR0V6ST9xOs8ugB5dMfRQd0FP5qcsu0rnrnF7lFnaxTj4Vz9Yl3IamrLcIKqb+00+AUkv48nn5/jflqMVc3wRMPRcpjqBchMUWMreVbcqO+8jOcG2DaUl1eq5WnaLBwrTpObCNt9To4M3yQvFSCPngvVUh+VRN2KKEByc938+DgaV/dZBp3pHEwnHVwvk4HrMC8JaxlPcVd6eDOYpGN/++SQK4a+fC7t8sLvKpPNLlS2RpPuZ9RKmcaeGSVj31Hfoqcz5uxSdDULQoZSlv6FH1mAJDz5O/JtU+UGkQRI1lOyUK8N9c7mnj0FFMmnRmOG16xtNOZkvNS+Jfsp4RLEcEurtmYPZuLbAc38uxQHOgHi+6q7973Och3Py9p6ATde0tM5ckx6c04FeYruinnVnQQSZYB4rqNu0JPsI4IAyXrucnUpuuBu8uybgV2Sh6a77biP7eK6ouGwtVk1tSX/ISESxHhTzaLmtwr6e37O9LakESABox0vzgTZy1sWRXcnrWn6CNg5vucscCpcGCPdSSARBsiTq81/aAR/y/r+1ADxTjVUNxKS7paKpTVxzzPSNo9tIXVieGOaLJltqX6GaYKYb+s90SyBfAVH7Ni27eWzCA6QwFftvvsvKBNCCFdO7rTmzbjvFccf7pgKYmlcnw+FvMaEn8eD7iSQ6AIk4bpDt1pv63+2TguQtOeJ1dC9zFeaj1jPXMFOXAOkYjx3Trua2lL/DKMEMdoK74ffYmln01SnT1aolpMiOEAGwT/JWQfZ54M60wfNOehVRTPIORUkMIpy3a1tW93AVyA2tSeBRBcgruDda66DL29PCZCUZ7aAT1Ow4Lo659ojXnlXnzy+72nuGd+cmtXUlt+P0E8Qw814NZrszug/ZUm1p3Cm8ZBPjv2fOemV5kPP50ivM7Km1ndQO+tnwDLwFYgz7UkgkQVIdqOo8ugXa0wDJPmtf7m6omZtMGLuHq8fxzVA0hPz+1Nn06eW/0/QTZDqIsTXm/i2kRyPpn0isgDRai6UnW3dhN/j3WgJy1Dek3I0TQ7+Hc/fbvwsqf0HVC8UIJ3gnp9UN3SAeKeV+nVOXSX5vVG1urK3jQ7nlcpMwywCCnp1eivoB2gliHHt9M+cDf8NuZ2nLR1VgAz1PvPpFzmptWGL5t8pdKbs5t/f5JwK4t+cedN9wnf1J4FEFSAZZzVjanBUkuOQAZLwDKV3tIuIhosGXH2zeWyX1aX7Ye5S/42vW8GfD04Q89rpn4dUWvuyPml809WF1XyzQ37n089yXk+WUeequJN2fTq6IyaO7vjc955cG81+iiRAnM0yy2hObW4TKkASnwbTvJ61e85BzxM7xlu5VpdhbtTth/JJrzW9JCBBMp1dmG+1DDwPM7PKp9ZFr93f6KundyWWJkM66ub6b9+opDln41m3L1Y1mAQSUYA4M8v0qDRDBUjPoJ7mGjbbGO/Ck3O2rkbxDRCN1wvLq6nvD5r5Mf/4mBslSLKxCfONrGZwG3eoN73QKEC0nx4v6iUqzgGxTcbwStxKI2Cm9xwd6HbGvgwmgUQUINUTjkpqHSJAPKUT/6JLIVR9VxFxpRgnSMAGB2bV1OP86CSFSHYMZm7WwtRO7X03a3rSDvUoAsTS7po7Z4K/Khsn5u89+JBe845O0Vp9C+fd87TU3QTnuwwbFwqQr1OOyrt5gHiu0k//yoTzUg+zBU9qeRtLYoQQojgIc8/a42JwfrQD/odXaRLqqwz0ChFl96e+Hk8PEIMRk4Hqr3dGy9p4YqKz1PgbZ86pIOpGUke3ZvhmMgkkmgBxLlxaGR+V5NI0QDzX6Jd/frh6naHemvOquQA0FiqhxmN2zYRefugmSKIZqjE01d1pI+HpTFmt3KkBYtARqqumwVbDTAGRl62rsrhSlntSns7iJqUx4qA16hRBgNRO6yK8GQaIp/g/CGhUPNmnrlh0jpRFuWTpf/Iaqpo6SCrO+FFIHCfI8RTJ5DDMd1i+hr2qbNve9Z9OCxCDaYSOguVU1Q7Yh9gTOy9tC1c1fmhdd01PwTaY2hpRgHRPOyqZnVGANDyLm5MGqR1ylXn3Fuazn1pN/XIE9dS3VHo0vHv0no2HMD0pndqp44+UvAVl0SqeECAGTZiSqvM9M3y8+4wHzKRjGKoH+NEZmwV3+DfJCwXI/MSjMjAJEE/J5DtpcMzDTmp+8rsZ7qaa6ggJ78tSPtTFPtu27UNwBSWi2qm8FeC8b9qlkAGyNTm+jrtQ8d/DDQ05r/6srF0zDb6C/VcSLU3rfacHSC78LK3jGkNQgHiaYsGvGkztI5iK7jiqh/QtJEiYauq+KL0UJKXph5nP2LwQomQeXwPz7XlUb9BedMphAmRu8rt//8C9KtRCvYJQvhWM87/Kj5NkTyz5GuWKcZ/t9AB5OfWo5PUD5NX97NN42bGrBPId0kpzDehtV1OHqgDpBLUwPP/72/Q3T8Mc9IR6juuqW0mYBojRBtaW/G9/918eqmEj7a1MlY3BPx4lib2XDkz1zSaBRBIg7yePUSx1A6R2MFhPpagenaopboVpNfV3sdZpAZI/mP3eZciJYAm/WfLr7vPDxQOkG9QACPQt7WG8+y7fU3QZZYNjzmHmxqUCpHvypOEvzQCpeoJUZ2S+E3WA9G4mQIyrqc1oujBmu3uZ1U7dCeK7KbC96T1dOEC+Q0/YltxsjtX72b3vLPWk9EWzsllnr4aTQCIJkFFA+ynYh16APB+tm9AYNB5GHSAjcUPMqqnf0RRRvwx+pXHt1O0l4B3Ns/fsJQNkdvL0+nd5F2Pg+1R9lf/xkq8wMh8POT1AZifWUN3dDHWAVI5fP6SxNH8adYAsxE0xqaYulQe17dtg9gwNGOyePDh1a/Ns0GLf3efz5QJkqbeczUdNXkVxTAWRbHLpmBvmvIeO/yLnuwxrFwuQ5YkTPd1lWGWAPMma26vA59Mi6gDZixujX03dSS7jEBPJtDd+mUZRsC4HtkEXr4kLBcjm5AmJL/IBYmcn5egp7pzW3/32G2Zpmk4CiSRANiePUDxpBEhZ3l0fJfT/vmhsbi1AnrQXpfzuBNcymcreUt9dAUtwonmH5NNXUD9N/fK1aANkFzTcanKr7BSlvrHPyIpdfJEuyDtuG2ov+jo9QBxHJeRa1VJwgJRUC7+Dyi7bqANkeFvxUTCoSDgazS39xXQtv0G3AJ/RbNiYawY1RIeP8Q6Qknq6pHN57UgkHEdil1U3Vcq3FSCWuiER8JaGfcT5sS3fUnxkOybHxznIdpwgiuX8x8PeJnPYdp1MNH9p+cM/Qzavce7CuMpSLfWgV9W9FKSpHOKZicsFyCW6MH5n3n9++iba/Ni93lB8mL7QxzUz4DhBpC8UkkybaZh1GRtRbUtcbIz84vIjxkVU1/CMu8yfcMyCXCaEyDrXzrvG352FlMYFA+QSRVT3qKD7Mef/DtZllPGx7OdvKD9qphPJ3H98S+czsml3phPJFrXI/uT0S1e9e2Yvce4AOdswrnsqSEUROX/ORk9V3q6aTwIRcRnG9Yxfuzvavi8kc3y7ce5E6RtKD4PaqWqaYCtcfpj1Yf7cvFG+RKHwPtafIxiPiWSeg+r6O0bemkdJNanpK1ShLx4TyZzehEi4V1P45dbo5In2N6lgvphud1T3a4XLjzCL6b4KUf71+cZUc2rVtU1lHynHSRztB+fLF4vHT1pnfhblxdbaJQPkElPZvRdl1tX63pW1IttOExw/10qY5fySNGiGXDbUMv/tJ05JPU7QlqSoahXPGyAnL6ZLbJTTsB/W0iDsHY+s1OSNrrcQk0BEXBbTHTVyyq5p7cusTqcxbOHq1oR8oZBsxk0zVH6EfKFQI+LdzZ+Hh8B1CtEGyJmW8//RkfVuMtvjv+DBUVbd/g5yTUJMAhFRL+cP1dDUWM5//Ke5V9l+K+eTPdsn97BuTASvNNRKEL9ly8lQL3deRj0EVjyaBFM5a4BkNfvdSs4BrKw6XH7XTTdkHbSmbGStEGYSiIjLC4Uk9dKe/2wl2Tmbkh5hX6rcUCV0M0x+CJFohtpRahL121jKM/9CcbQB4pyt8R3m6078ZmpMjw++c9rY7+rbnOPYL/6e2HaYSSAi6lcahjoqA+0Acb5AOem6Ew7K7sk0ZLLepJDbOox85k02w+SHEKIUakvc05fXedtC7iX/u8xZA6QTaqRU2lbv+vXW55LegWPcxzm5/eW4jtC4cIB0Tzsq2b1ugLhfgJp3zYLaqPqUHf9xunuSC7mxlP/0nmao/BBCVOehFjN2c9EelXe/hX8RB8iJ2zq0fWdgO4dRfh6V37JujXvO+s8zvxL2Jo54W4fGqSfQJ0C8LzB8dtXAJsngIsg2/LzoVLGcjXd8hN3a8i1ovWIzXH4IkXw/29aWJlxjQp2zBojzjV8b40HBrCUfqv3ry9s+cdY1vhRdoZ+6ZT/saq+IN5ZaGx8Vz/v31QEyzfhfuYrmhWtXl/eQ11ima9m2/R3nLlB1FWrpT1vjhDbD5YcQIvMRqhSyinST84e5ehwm4gBxdR6MNxnpBMyefPEOxHZV5eFXb2Q6k6126QBxbWBvfFQ8KyOUATKXNACGAdOAvD0sexFuXUXupxa1je1AcKYf5kY99PW2hGyGzA8hRP4zzBez+1HO6XHeTovzBojzreeWYZP2cRcwJcE5FaQqhEhbqsKoc9mLlXYfgk3y4gFSPeGopNd6AbKUXcoZ12SgrXwxsHPsPNwM4sS/et86pt2Y7CzMXTrSXl3dDJsfQohyqGrqNBPd0XG29DfnDRDXRquGm5Q5xx2l7052NlEGwr0735u6mvIm/Ga4XiJAXC9tNTwq3kmJit+4ks8wKble97GQX1TOcZh9mDcOtELfHFciHWYj65nJ0sjmKYcoVDV1El0bJOF4tO/PGyCuit/OaESpfAisNTrmre+zruFRy3O0nBs9zNzvMixfPkBcD6Ct0WSyvKUVINuiRutTNZXe9QK+acL4+no6+ExVjIXeOWqnnhCYHmzbtg/TMOWJh/cQL47rRXd8HHeTdeYASa2Dn3jybrSzhqUqwE6d5b5nv0HfL1d5pHk8AnzRAMk4Y2Bu8GhIHU1rkv9G9cqBrkbve3ZCA1uI3DLuc9Eq56mdRtpG+jB/dVxkk8qcUyFXZw4Qd2/vWzulk2Odnvi780od+E0Rr7ieu7Pw46iRBIh79xWDJXXHpT3TAEm6WueHSmAT5GD4iEy7Mu4rjgFi2oHRrZ1GKm9c5p1E9aur6h8afYC4Rx21V1e4HpRrVcvFORXk5eA7wXPmvCVOmMkVTYBkN1rzyr3e7JMDRDy6Wr9r2aWfcN1BO6OhlOTI9fVeYpgfxbPVTqNVGhl+0agmpQ7VHaPoA8TzSnvN5T11zQ85eiaW/2Xr/IlW2EkgkQWIZzaY5kO+so8gQEQleD6Z+wUUW4PX06SG/qs146B9vtppxF7MqqntaH6ra+v6t7MHiOt9HPZBq8vQ0m16vUgP1ELSU0rJJ/HV/qcASbjqDPs3nV9dk3V7zQPEM5NEOgrlfgmipZ0gWXfrf52LY4CY7GW9qif+z6/68GZSTfVbeZVoLLaTD52umLsTnD9/gBTd130vcI/epLt3t/NpIT5Ij18j+J4INwkkugARZXdrohN8HcpXYYUIEM9eibIMTbkfbXvNSlHB/bFDPOeR6U9BvXjtVFJyautXU/1eP/Nn4GkX/BqihOvqmYrzB4h3w/fvgIOe9XTtfKdTy2JhKz0I0lfTdsX/FSDePBikjFL1pABJu+5zS9Y1LnqGi4c6M8Lq1lmazJemuwRGt3aayZeKxUeDR1Wu8lqvP+u+Qeexr/vSZcundfvvkRrwGqLMwPfmPEuAeHcHnvu2iCueV6cNjQteveDST/j16pEFSMKTkzPf71JUjQyECRBPPEjHkb0bDK8CWxM579L3QSKeAaLZK/jWqp0Wuj8NmsO4rrWmrdj+ewMsu5pThHSrqWv1j/h09sqS2nfnJnWRAMl4az29nDpOvfWMgEef5MZSnNhnycJr8f8FiHj0NJUP6uZjuq1cVx4qQDyV7S+ttt3Idx7B8drVcSqe+aG3PfBMq3uW/3S2DhbBxXLP9a/7No8Xran3Pvucuz6/biuaVqVB0CrA8wSIyHtDfduRRshj19uh2wSF8PHI5lj1T+d6xZJLBYgoeW8560MaIZmmzyrucAHiiQfpcTjuM42VN02qvjrn4ovL0liuplc7Tbe9a2f7AddM1QrZTUrUNdpNn+rPe5LhMG4c9aAe60eLcObJCwWIZKvn/aDqeUKlqscvbQ0eQczutAdW3o86sY//a4BIhmV3Xy+en5p8/jyqkh1OD5AH18WwlzUuZG/ynXcqkr+63DsuGyxycc0P2WwbT9C3UmHv6VHatE6+/dBLYo1qqs9YX1XSXhm0qsXHlBBCpIqvPUm7TDIN8VwBIiqSytR21KwWkkIIkSxUmyPJmw50loN73/O6Ut7Xae93CLPvc5QBIqqyv/n796i8NIaS47Z5PT1A3EsF7JXsdk9J3+dnDd6f839H0pKP5fcv2ajFNL75IXL+d+Khp/XceZb3Kvym5tblv3Cj+Xr1oGrq1u+cKMeu95uVqqrcEpcLEFFWNcO367XqJSla8w9egv+qv7qnTgKJOkDE81Z9VFT/a10sRhAg4snV/BnLBtcTXfXFuF6tVsoryx6mRIx1fWunWmWJ4lD1eXW3uax8WdDyVa8eXfKdwuI75BhiAfKXuGSAiKLxG57WWmMkCffP3T9qD9lskv97gIgn45fULQoikgDx9OjkiwyaBzuMXiLO+XG85Nm0duq3EdX20WA8wHi+67O6mmr5jwtnv6M4yWcMEJEznLo/0axQfOgWilyvAQk1CST6ABEFw20DhhkRUYC4i4U7+eX1HOLFftt3EXO1k2qnyYbvU6Fj+Ev/thH1phwk6qozFtTeTrSMnhbtgIs++gARiQ+TL9jVbR+42xW+vZ7qiZNAzhAgImWyqvLQ8v7FJwRIaqYRpznTB5M9LYrY64SvnYpqwDDw5sGwCvGvy6A3LSTVskxyy9kDMujGvIvLB4gQzwvd77c0WKI08Zla64mw5WmTQM4RIELUtJ/yP5PNIgoQUbB0VhzVjV5ec2gnxQ1oSWqnWnVhjUld8hxIB78uea/3FUSud9ApeEro7sI3q4hIA+S3ybYPSMcPrZ02Dh2TNQbOYbeArd4afpNgtPwe4V1Ac9ZxQez8/2VG7w1Yu1byqM11kOe45l5ZVa2FEpmuftv2uyRuQ20dpnb6qNOclD8btd5ipLv4puhpzqx0xwuSdY0I2bwngp+aRgux55otACFE4TP4avwyawRnduqptd5K0fakSSDCOeNmqn1Qghs75aHG4+dflSKjuO3HepUgef3Ib6lmsa+3w1LkOyn+j9Ifv4/Fw0DrD1N0Hrzkb6d41RxZeNdr4VUGv/fZ5sPgeZx8DWhDbXs+k8PH4SZpdkwKk8VP36vx8GX8EPvUX77V1RqQ12rDBP2pZq8WLg98g3Xbz0tPk+tLtHUbYr99upFmGzffDb43JjVxU5LV3nhtbRafDb11ba+aXdF6YOPYv3ev+U6dQuNrsbHW417VtFOZb6tLDZO677y2f6uslkYD+Zm/h26j1UnLNpSDTfNmmC0w/7YrVoFJm/v7B1qFkFfV34ZF4I4Fv5vRTrTO4GNTedqmb+6z9u8NCSvXl0j/bX5OtIdRs38/sgqa75iqDf2Cf/VRFHftSbsCKZ8Q2jQoU5//NQmF+udx6csatwPvmpf9z2Qls99X+fPbNtp/WakxOpootRs1Q25l9rLRnjjy9CdBrNCN7dJC90/9O0I70V2YLcqt8e54Zmrj+GTU/vwVK8+Y09OfIJ8ZhOPPgpy9TtE6W+tJM+4w7b483Hd85L/07/+TA8S2R5fY8+/xudEbTZfWfrOYjgadV72rKt8/HJbm+/FmO1Nravax1FO9M5wu1rvdejEddupPJ8xefOzMt/OO1q/PdVeHWfeEt+Cm2mNrpjWdOfE+tVbDujA+KrN/R+W1nFJU61a7Reeo1ZDtraxxy+hA5nvL3eKzpH9VvXdH08Vmb9u2bS0mw36rkhZ3zmzHyQgCxLY/CwLADUi8me3SEkmA2PtujkMPxN6z6TaY0QSIbVutNEcfiLWi8UzdyALEttdvSc4AEFvZbojVhtEFiG0vapwEIJ6SDSvMTR9lgNzW5D3gjlQX4W75aAPkhpYPAPejPA57w0cdIPahn+d8ADHy2A9/v0ceILa962Q5J0BMpFpb+6oCxLatZorzAsTB6+qke/0sAfK/b9MLQEdleuKdfqYAse15lbMDXLVM/+T7/GwBYttDprcDV6wwt685QAzWwwO4tPzKvu4AsXckCHClUjP72gPE3pY5T8BV+rCvP0DsGQvsgKvswOziECAhtxsAcF4dOxYBsmI+CHCFVvEIEPuFUwVcnazJzPJ2lAHyaTZ3rcO5Aq5OUX95bC+XjjJAGqJm8uqAEecKuDpl7Ru4JETEASKS7/pvbl5yroC4BsifFSlRB4gQ6bbu+88WnCvg6pS05pL/7F0bfYAIkevqbVE841wBVyevsVnLvxf7nCNAhChobYA34FwBVycV+Ab2we92cecJECHKo+AAeedcAdcn4N6dOt+Pfq4AEeIlcEFOkVMFXJ+awQvBzhcgIvG6pAcDxE5C/TKQbduzzeQZA0SIZGPj869ZjgtcpYpyqujRvgpnDRAhMh9b5qECMdOSbw4neeafOUCEeOzJa7rjB04TcKW6knmf0u1pzx4gQhQHslmwGU4ScLUae739WC4QIEI8He2O1+NtQsA1KzkHc/dd1WvQLxIgQlQnrr7UE+cHuHJP/Z91bbO2ek/aCwWIEOX+z6Duqkt8ALGQf65Vn3y3o71YgAghcpXngG8DIFYuGSAACBACBAABAoAAAUCAACBAABAgBAgAAgQAAQKAAAFAgBAgAAgQAKdIquOgLv3Am0+AvHI8gfui3odS+gYzUfUJkGcOJ3BfJso4kL+2w2/jzAKHE7gvH8o4ULy5Q73Zy5yjCdyZsioOJooPdJQB0uZoAvdmbFQCESK/U3zAeuRgAvfmSbGDbsK009PkWAL3R9onsdQ7X6en8i5PikMJ3J/E8DgNDi8+H3iU1VEXvC0ZuEupo63jtjXfDxRmxz2ePMcRuFMt9/61i1JQ5PQ9+dFlpzngfpUcjZBNU6OaUXL2e76KHEHgruUbw8X2sJn2qpqNicf613S9X02/6jmOHgAAAAAAAAAAAAAAAAAAAAAAAAAAAAAAAAAAAAAAAAAAAAAAAAAAAAAAAAAAAAAAAAAAAAAAAAAAAAAAAAAAAAAAAAAAAAAAAAAAAAAAAAAAAAAAAAAAAAAAAAAAAAAAAAAAAAAAAAAAAAAAAAAAAAAAAAAAAAAAAAAAAAAAAAAAAAAAAAAAAAAAAAAAAAAAAAAAAAAAAAAAAAAAAAAAAAAAAAAAAAAAAAAAAAAAAAAAAAAAAAAAAAAAAAAAAAAAAAAAAAAAAAAAAAAAAAAAAAAAAAAAAAAAAAAAAAAAAAAAAAAAAAAAAAAAAAAAAAAAAAAAAAAAAAAAAAAAAAAAAAAAAAAAAAAAAAAAAAAAAAAAAAAAAAAAAAAAAAAAAAAAAAAAAAAAAAAAAAAAAAAAAADcgv8AeFzaLecOLZ8AAAAASUVORK5CYII=;" vertex="1" parent="1">
          <mxGeometry x="981" y="1104.2" width="179" height="94.11" as="geometry" />
        </mxCell>
        <mxCell id="YRsGhfHMuzotypktMuR_-4" value="" style="shape=image;verticalLabelPosition=bottom;labelBackgroundColor=default;verticalAlign=top;aspect=fixed;imageAspect=0;image=data:image/png,iVBORw0KGgoAAAANSUhEUgAAASwAAAEsCAYAAAB5fY51AAAACXBIWXMAACxKAAAsSgF3enRNAAAcBklEQVR4nO3db4xc1X3G8bMNCkgQjEzARqY4AtsJK9nxVto4FV5AYalsQRLJa5Q2rsQ6VK2CYqcvqhpEXuSFTSCvAragrUrZVHHayH9eJEZY8gqh2Ki1XcmuLZnI6yJhxQ12E0qIkWKaiOq5O8d7d2buPWfm3jsz557vR1pBZm2yO3v3uef87u+cM3Tf08s+MgAQgD/ghwQgFAQWgGAQWACCQWABCAaBBSAYBBaAYBBYAIJBYAEIBoEFIBgEFoBgEFgAgkFgAQgGgQUgGAQWgGAQWACCQWABCAaBBSAYBBaAYBBYAIJBYAEIBoEFIBgEFoBgEFgAgkFgAQgGgQUgGAQWgGAQWACCQWABCAaBBSAYBBaAYBBYAIJBYAEIBoEFIBgEFoBgEFgAgkFgAQgGgQUgGAQWgGAQWACCQWABCAaBBSAYBBaAYBBYAIJBYAEIBoEFIBgEFoBgEFgAgkFgAQjGNfyo0I0brrvRLLv17uRvXr7yvjl38U3eR1SOwIrI6jvWJN9sEjaL7r76jY80XrcWL1hiFi1YUvob85/nj8373zMX30zCTi7/di703vn1z807v77Q8veBofueXvZR9O9CDdgwWr109p82hKoKn16xIWfDTaGWhNul2X8iLgRWQBRKdnS0fNHd5oZrbzSfveNzUb8nCjQFmQJNYabRGdPT+iKwBpBGRcsWDSfBpJFS6KOkfvivSz9LwssG2bmLZ5hm1gCB1WfN4RT7iKlqGpElIXbpTCPIGI2FhMDqMQWTpnY2oBg59dcHV36ThNaJ80fNybePUhsbcARWxVRzWrtiPAkpAioMmk6eePuoOXn+qDly9lDsb8dAIbAqoNHT2hUPmrEVD5q7bv1M7b6/2GgaefjsoSS8qIP1F4FVEoXUupUTZmzF+MCPoi7++sK8XzxNh9Js60CWrD6pZY0nl3kW37TELF5w+7w/sTz19zQiHeSQ13t3+Oy0OXh6H/WvPiCwChjEkNJ0RmFj+5aScHnvQpDd6HogYcPN9pfZcNN7f/21n2j5O71kw2vv8ZfbBjjKR2B1yNakHhnd3LeRgB0haWRkO8SzRj11Z0d1CjQF3G0Lbu/Lk1bdKPYcf9kcOTudOzpFMQSWJ/1ibBydTOpSvbyz28fwtiHyZNP0De2l20U0KtO6x16MgvXU8dVT+xl1VYTAclDx/JHRyZ7ctXWXnrl45mowUSMplw0xPbFViFX9Mz14er85eGo/N5kSEVgZ1q3aYDav3VrpXTn9+PxkY3qH3lJ4aTpZ5RNdjZJfPvw8wVUCAqtJlUFFQA22dM9cFVP/N2amzc5D25kqFkBgNWjqt2X8qVKDSvUMBZN6eNRFzYUaFgXXbD9duU+Bp47sNHuPT3HD6kL0gaW6xpMPf7e0eoZ91E2XdL0ovDT6Lmvkpetk5/QOrpEORR1Yk2NbzeTaLS2vd0ojKY2idNekUF5/Cq71KydKuclpmvidA9sYbXmKMrBUq9gx8WLhC04Xmx5hc5eMk0bnG0c3m/WrNhQademG99Ter1OU9xBdYKkv57lNu7u+wHRx7Tk+ZQ6e2kdNCglbrC/6sGbX9I5klI5sUQWWhvJPPPRsy+s+VHN4+cjzdDIjV9GnzOrdeubAtpbXMSuawOo2rGxQqQEQ6OR66za4CK1sH/vUAwu/nfnZmtATnu0TL3b0zWjq98N//wfzzCvbzJkLJ1s+D+TRwxdN7955/4JZvmg4mTb6StZHXrfAHHvrp7zHTWofWCqMPvfnu83Hr7m25XNZVExXEVTTvw9/dyXjTwFuNrjM0FASXL7X4fCS1ebcpZ+Z8796q+VzMav9lFAFdt+ngRpV6REzT/1QBY2ynnz4WXPP8nGv/7qux6+8cD8105Raj7BUR9AOCz603uvr//wIfVSojEbrr515JRk5rbnrXudoS59feMMtyUgfs/6gzu+Dip4+tFTim7s3cSdDT2gE/9hLX0zWlrqsW7khKWtgVm0Da7XngQ8qqk8dfr7ldaBK6uHTTdIntLSeEbNqG1g+P2Q16tGugH7RiF6hpVpVnvWrJnI+G5faBpY2aMujmhVdxeg3hdbO6e25XwUnL82pbWC5ngzuIawwIDTKd42yVOJAzYvueSiwY5DwdNpPtIHVSecxULVljhIGZkUbWNoSBBgE6wpuTxOT2gbWRcfWL+o2Xkdooc800vftF0SNA8tnr6ot49+imIm+0kaSPv2COpcSNQ6sX3j8gDUM/96mH3gv3wHKopFVJ+tc2SxyVtQjLOsb40+ZHRtfZAkEekIF9pe+9mPvsHKVN2JyTV2/106H0KppaXqo/iyW6qAKGlVNrt1qNo4+2tF/ndHVnPoG1nud/5A1RdQpOutXbmCXUZRGQaWywyOjk109DZyhR+sqRlhtqAiq7ZT19IbgQrfKOlXn8hWanK0aB1bxYXQ6uJKTck7vp0MeTvbAVd+N+lzogp9T28AyjWJlGUeM67+hwvzmsa0cmIq2VEhft3Ki8GiqHW6Sc2odWO+UFFiWLkRtqKYP7WP06ql9yWZsFEXjpCmftjFSbarM66wZB6zOqXVgqVhZxnHi7WjLD4269EF4xcOOpEaWrunJti+uXRxiU+vA8ilWKmyKXnjp8NI09PDZ6eSuqA+G82HTKGr10jVJy4vqUmVO9xRGusHlXX+UHuardWD5/LC146OOGdcynTIuxkXJk6FHr/baaKPAE+ePJl8LATb40gE14rnNdjf0AEc73u5wnJfJE8L56j3C8giHZbfenbQt6GSSIr0yWTQlTU9LNaKbuXgmCTAbYugP9Ufp56+A0g61Cqmqd01QUKkx2ZYOXNsc0YM1X71HWJfcP+zFNy0x5vxsuOlC0hNAFdWrKqRq+J9MAVbOvaYQU9/YTCPE9O9MBcrVHE769yoL5c2ag8rKmw4aFj23iH6EtXjB7S1/R6GVBNeqDWb9yonKCveWDbHmvh0Fmb4eTSl14ap7XyHMtDKbpnT6mao4rn8m4bTo7r7sN6V65qun95uDp/a1BJVpfK0u3azYqLNaB5Zp1JDyAifvotFUUR+2Y3lsxXhP78r27tvu60+HmWnU6/S/Ywg0BdAN1944+8/rbkxqTSbjfeqHN2amzatJmSH/BPHmm2U7jLDmq31gudzmddFcMLumtycf9rF2r8OrWV6YmcYTKDut1FTTFm9tsJlGQXdQpp52ZGTs9K2xZbBetz+jrO91ECik1FSsWqjvDSMpRzi0G5nFrPaBpRFI3oXe6V7a+gXfdXEuvNQ4qMfdg3YUk6ZA9vvO+/7T0iHX7ESXDweWN0ZDzfo1TSuL3isFlB6adBJSaa4Rls8hq7GJfoRV5JfGPulTMVWjArVHVP04vErpkGuW9XpMbIuKpnpZwd4J19mZ1Cpb1T6wTr591Ji1W1peT9PdvugFqIvL1rxMUz/P8kXDHIYZGDvaVEDpGqqi/aTdyDOt21FtndU+sHwa71wXTjdUe0gHWL8fqyOfRk9JW8mluR65qnG0V+dqH1g+F55CpOoGTo3A7HIdqznEVNNgJFat9MjJ9rv168GDqxyRzA4wTxQ1LF2kg1jgbRdipnHntb1EtmhNDakz6oHSKHcm1Yg7SC0fPqc1sSynVRSBdc6xa4OK5FMtr/aPves39/HYEZl97K8gW97oRYpxZKZpnEnVejQiGaRWjaJY7dAqisDSkV+fNdmBFcqx9XZEJllNiTbI0r1MNtjSf2ZQWwpsQ6xp/NxsH5LtH6tLIKkMkIdtZdqLIrBczXd1Gp2kf5mzQq3ZsoxeKdcvVafa1WRiXWrU7v1OY3TVXiSB5V7eoDaEWLuKs3452EmiOq4eLJ+DgGNU24NU03wWkPqs6wLKkreG1bAkJ1MUgeW9zQzQI64ePBY9txdFYHWzzQxQFbaV6V4UgWU8FpK6agpAWXxujj6zghhFE1iuUVYVy3OAdnyW5LDwub1oAsu1kJR1XegVV9+fbYhFK0ZYDSHvzYSwUH7oXjSBldVrlOazvgsoim1luhfPCIuFpBgQeetaDfWrXIywUspeigJ0g2U52aIJLNPYciQPTwpRNbaVKSaqPd213CGvw5hiqJt+4XReY3rbZ7spng5l0IGhTGmy+ewMwggrW1SB5dpmxqcDOVZ6b558+Ltt6y/28Ap9bB7banZOb7+6NTTmc7XPuGYBsYtqSuhaUJo3+oqZfsleeuwnbcOqmcLriYeeNU88/GzL58Ci56KiCiyfoTajrPn0fjy3aXfHfWrrVm5IzmzEfK6De9lWJl9UgcUi6M5pGthtU+2W8adaXosdI6xiogosnw3pWKIzR+9FkcMvNMVWgR7z35M8FNzzRRVYPkLZ370X1q2cKPz/Msa08CoWPRcXXWC5FpbS2jCnjPfinuXj1AUbfPr82JY6X3SB5WrKo3l0jitoFP7PvLKt5fVmG0c3t7wWI8oNxUUXWDOOGgEHls5xTY8V/pd/6z6OauPoo2bHxhejH2mxrUxx0QWWz17Z1LFmuQrAmu5tn3ih5fV29Gf/9fHXk/6sWEcaI45lOSzJcYsvsDz2ytbpyqimJ0j9Wf/4tR8nvV1s5zOfa/QPRlhtMcKaVeXyGk29v7fpB0lwxdL6wLYyxUUYWB4jLIqjCT2xch3eUZR+ibWU50ePv54EV11vFix6LkeUfViuX8LYi8Np3znwty2vVUENlTa4Jse21i64fMoMnEXoFmVguYbervVeMdFd36d1oSxaBjS5dksSXCrQ1+Xm4XNQL8ty3KIMLNee2Yyw5lMt61v7Hk/2vfKhEWzRqaSCSwV6+2Qx9AK9a40q28r4iWo/LMs1wmKbmVZHzh4yX3nhaBIi61dNXN28z9Iv3J7jU/M28LOb/envFKG/rw/1Kb16el+Qe22x6LkcUQaWT3FThXeKoPMpiPYen0o+TGq7X9Ve2v3CqWivj6nDzyd1qaLBdXWTwLVbW8Jx0LnKDLQ0+ImzhuXRoMcSHTcbSO3CKk2ff+bANvOnL9xvpo7s9J5aZtEI+BvjTyV1rm+MfyuIKbzryfNtHjUuGPOxTz2w8NuxvQ/vfvDL5I6f5533L7AQtWSXr/wmeU9/fOJfzIe//zAZdRR5Gvjxa641w0tWm42jk2bxTbcny4QGdWr1l/f/TctraXfcfKdZvnjYHHvrsPnwd1daPo9ZUQaWqA6T98ty8vwxAqsi+oXUe6uppW4MOtAi72fhQyMY1cvGPv0n5sPfXxmo6by+ti+N/FnL680UWl/+o68m78+Z/z7Z8nlEHFjapylvKjFkhpIaCaqlYFFwnbv0M3PzDbfk/kx8LLz+k8nWzI98bnMyAlN97XLBKWhRd9x8l3c3v77mz915b3JDVemCOup80QbWskXDyXQii+osmrqgN87/6q3kBqGRrRkqvtpAv/h6KKDpoqZa717+Zd+mi+tWTXTclqERp4JXwaXQ4inirGgDS2GVdxHpTq0CMXpLv5hHzk4n4aVf2ttuuj0JnyI01dIIR7/8cv7dt3paJ9KJ4nnXWh69B7NLlhYk08TY61vRBpYuhC8MP9Tyetre//h+9BdIv2gap+Aqq0BvGj9zTbdUJ1KIKRz1AKZqOqux6FRXN9gHhh+OfrQVbWAtvP4WZ11BT2wYivdXc4H+tpv+MBn9FqERmy2E2yK9fs5V3ZxUTyv6NZvUaMsMDUX7QGjovqeXfdTyaiRef3Im9xvVGjpOMB48ZXXQp6lmmRy1f2p/6WHgus66oaVP39y9KbotaaI+NcfVwMgZhYNJgWIbUfce/37hRlSTWruoPbrUkJr0dpXQkOrz3+hma2QtjdLXGdtWSNFOCWXNnffmXlD6RXjtzCstr2MwqM517K2fJnUuFdLL6OcyqVqXfcKoKWS37QV6Gu0qPfz17k3JlFdff9712Exfl+paeg96UYsbBFEHlp7e5N2h/veDX9KLFQDVnmw/V1ltEZaK87avS//eaTe9rjHXkf27pnck4WvbOkaWrvEO3thCK+rA0t0v73HzJ6670fzw3/6+5XUMrnRbhEKgjKeLJlWot+0RKhe8+8H/OENCYZV3jakWle7309efLC4fGsr9e81fm0LrtTMH+t4kW7Woa1iuHR5V10CY9IuvXSK+8sL9ycOTMo/Q0uJrHV2mwzTsAuysEZ3rMNqsorm+9r/4py957yuma3XHxr9reb1uoh5haUcGV31BQ3RaG8Km6aJGXLPT+yGz9JN3FW5GtTR6U4+UWiTajby+PPLV3LrU7DSw/VNJ/Tdee/MVs/CGWzIDMS1pnah5y0PUgaXh81f/+K9aXk87MjOdLBtB+GyRXtN89XR94roFuWHSqXbhteaue3PD0bXIXvU5TXH19bpqYSYZ0Q3PNtvWtOE56ilh1nA8jRN06kn9Vupjsnt0lb1FsZ02usoKJ9/ODqs0fb0+e+vr/2/tivGW1+si6sAyHj0wbORXb+lal/at7/VT4U5Oe1Zoqe/MZcxjJBaqqKeEMvbpB5PH1Vn+7/cf0toQCU39Nf3SGlL1dZWxDMhF08eRpZ+f3YDwyvvOp46a0rr2ctM2PXV9uh3lnu5p2kv7nuXZQ2hO0ImPSgUazehDP/+kD2t0srLDSexe9TrezDRG/SeSrad/bt5570ISZBoJ6mxDBZX+Pe9rqfPT7egDixN0kMf2Rekj6cNaOWHGVoxXel3YAEOr6GtYvifoALpWdk1vT+pd6pFSPYnzBHsr+hGWz/HgFN7RLAmvi9uTAOvVyMtXmU2yg4bA8rhD6oLM65VB3JrDS0tq2h022ys6bLauop8SmsZ6rjx5T2SANLsIe+eh7X15XzS6qvMebgSWR+F9pMv9uIFeemNm2jy17+u1fs+jnxKaRmtD3lMZRlioghpVNYXUDVH/7LYdQUG159hUFGULAsuj27hftQiEy/VkWVO3I2cPJR9Tjdd0Y1Sv1eKbllzd7Va7PTQ/9NEN1p5ZqJCKaZtkAsuu52o07WXRxRTb/tnoXjfba+v6SkZJ51s+hQZqWJ7ruXTnA3y59sE6wVPnrhBYns2jGqYDvlxTQkbr3SGwGjhBB2VR+cBVQO/2UIvYEVgNrguIRdDw5VM+6GRbGcwhsBp+4ViicxsjLHjyaYNhhNUdAqvBtUSHBdDw5bpWWDDdPQKrwXXH4wQd+HKVDzjUpHsEVoPPUxvfc+IQN1f5YMZxc0Q2Aqvh3CUuIpTDNcKi4N49AqvBa4S1lBEW3Fx7YlFw7x6BlcIJOijK5+EMTaPdI7A64FpuAfjc1NgMsnsEVoprfRfNo3Ch/aVaBFYKJ+igKFfTaJ33W+8FAivFaxE0oYUcrt1peUJYDIGV4nOCDougkcc1wqIHqxgCK8X3BB0gi2t3Wp+bIrIRWE1c67zY3x1ZfK4NHT2P7hFYTVyjLFobkMVnWxlGWMUQWE1cNQaaR5HFZ1daFj4XQ2A1cT3FyTsODHFzPZBxHdgLNwKrSXKCjgN1LLTjXPTs6PODG4HVBU7QQTuubWU4Kac4AquJzzovRlhoh5NyqkdgteE6QYdeLLTDSTnVI7Da4AQddMprWxnHAx24EVhtcIIOOuXT7sIIqzgCqw1XrwwjLDRz7UbLSTnlILDacN0J2WYGnaJhtBwEVhs+T3MovCPNta0MuzSUg8Bqw+cEHZboIM3V6kLBvRwEVhuMsNAp17YyFNzLQWBlcJ6g47ijIh4+D2FoGi0HgZXBNYR31SwQD59daDkppxwEVgaKpPDls60MykFgZXAN4dlmBpZrhMVJOeUhsDL4FEmpY8F47ELLE8LyEFgZfLayZZsZGI8WF8oL5SGwMvh0JjPCgvFocWEf9/IQWDlcW9rSiwXjsa0MJ+WUh8DK4Sq8swgaqz3aWxhhlYfAyuGqPbDNDLzOImThc2kIrByupzuMsOAqC3BSTrkIrByuE3TYZgauJ4QsySkXgVUQhfe4uXqwaGkoF4GVw+sEHccdFvXmPIvQUVZAZwgsB07QQR5XWcDnYF74I7AcXEt0aB6NFw9deo/AcmCbGWRhW5neI7AcKJoii6sc4ConoHMElgPbzCCLqxzAtsjlI7AcuOiQhW1leo/AcvC56HzWk6F+2Fam9wgsBzbyQxZXOYAu9/IRWB5cx4zTi4V2KCeUj8Dy4Fpt76ploH58ygDUsMpHYHlw1SLuWT7OtDAyPqNqRljlI7A8nLt0xvmHJtdubXkN9aSb0+ax/J8328pUg8DycOTstPMPbRx91KxbtaHlddSLwmrHxIvObZFPsIawEgSWBz3teWPGHVpPPPSsmXTceREuhdVzm3Z7NQsfPL2v5TUUR2B52nNsyusPTq7dYl567Cf0ZtXMxtFJ86PHXzd33foZ5zemg1OpX1XjY596YOG36/iNlU1PCpcvHjZ33Hyn87+88PpPJtPDkaWfT/4ee3qHSz9HTQG/MPyQ+fg113p9H88c2MbPvCJD9z297KNafmcV0JRAd1lX/aKZ7rh7jk+ZI2cPtXwOg0fbxmwc3WzWr9rQ8c967/Hvm13T21teRzkIrA5pqve9TT/o6u+qAdUGF3fgwaKQWrviQbN+1YTXtK8dPRl87KUvtvkMykJgdUHTBBXYi1AR//DZQ8kTSJZw9EcZIWUprL65exM/y4oRWF3SSGvHRvfjbR+aMiq8tNkbxdpq6eemkBpZuqZwSFmEVe8QWAXoDv3kw98tdU8sbfqm4FIfj8KLHSuLUUCtXrom2Rm2ir3LDp7eb3ZN7yCseoTAKoEeeavzuYzRVjsagWl5kI48J8SyKZy0ZEYfyxcNlzaCakc3lu8c2MaDlB4jsEqiJ4gKLvVh9cLFRrvEifNHk7v7uUag1b2Yr/d52a2zoaR/18hJI91eHmrLqKp/CKySFXkkXhbVVPTLpFGZdgxIguy9C8m/D3qNTO+fDndIgqmxwFihpP9d5YjJh4Jq6vDzPOHtIwKrInbEtX7lhoE80t6GmvyiaWSmUMsaPbimo1kd/ukAMo3dOu22PIMQRlk09Xv11H6z9/jLBNUAILB6YPbR+YZkGxqEwbadHDy1n5/YACGwekgjibUrxs3YigcJrwFjn87SGzfYCKw+seGlKZQCrF/1rpjp6aseWug4eZ68hoHAGhCq7yi81NCop2CDWPcKmZ6qnrv0Jv1tgSOwBpSeli1bNJwE2Uijv4hRmB89UJi5eCYJpuTjUvZDBISFwApIux6kQX7CVjUFk1o2ZhrBZBtrUV8EVk1k9S+ZxnQzxNGZCuHnGr1kM41Wi1gaZNEegRUZ2yfV3Bc10tQ/VUXIXWzazDDd/2XDyCSbJRJIaI/AQtfsqM4QMuiRa3ij0S22f0avcQgFgGAQWACCQWABCAaBBSAYBBaAYBBYAIJBYAEIBoEFIBgEFoBgEFgAgkFgAQgGgQUgGAQWgGAQWACCQWABCAaBBSAYBBaAYBBYAIJBYAEIBoEFIBgEFoBgEFgAgkFgAQgGgQUgGAQWgGAQWACCQWABCAaBBSAYBBaAYBBYAIJBYAEIBoEFIBgEFoBgEFgAgkFgAQgGgQUgGAQWgGAQWACCQWABCAaBBSAYBBaAYBBYAIJBYAEIBoEFIBgEFoBgEFgAgkFgAQgGgQUgDMaY/wdUw9RVjoeUtAAAAABJRU5ErkJggg==;" vertex="1" parent="1">
          <mxGeometry x="1549" y="1227" width="150" height="150" as="geometry" />
        </mxCell>
        <mxCell id="YRsGhfHMuzotypktMuR_-5" value="&lt;span style=&quot;font-weight: 400; text-align: left; text-wrap-mode: wrap;&quot;&gt;employeespq&lt;/span&gt;" style="shape=table;startSize=30;container=1;collapsible=1;childLayout=tableLayout;fixedRows=1;rowLines=0;fontStyle=1;align=center;resizeLast=1;html=1;" vertex="1" parent="1">
          <mxGeometry x="981" y="1230" width="188" height="310" as="geometry" />
        </mxCell>
        <mxCell id="YRsGhfHMuzotypktMuR_-6" value="" style="shape=tableRow;horizontal=0;startSize=0;swimlaneHead=0;swimlaneBody=0;fillColor=none;collapsible=0;dropTarget=0;points=[[0,0.5],[1,0.5]];portConstraint=eastwest;top=0;left=0;right=0;bottom=1;" vertex="1" parent="YRsGhfHMuzotypktMuR_-5">
          <mxGeometry y="30" width="188" height="30" as="geometry" />
        </mxCell>
        <mxCell id="YRsGhfHMuzotypktMuR_-7" value="PK" style="shape=partialRectangle;connectable=0;fillColor=none;top=0;left=0;bottom=0;right=0;fontStyle=1;overflow=hidden;whiteSpace=wrap;html=1;" vertex="1" parent="YRsGhfHMuzotypktMuR_-6">
          <mxGeometry width="30" height="30" as="geometry">
            <mxRectangle width="30" height="30" as="alternateBounds" />
          </mxGeometry>
        </mxCell>
        <mxCell id="YRsGhfHMuzotypktMuR_-8" value="UniqueID" style="shape=partialRectangle;connectable=0;fillColor=none;top=0;left=0;bottom=0;right=0;align=left;spacingLeft=6;fontStyle=5;overflow=hidden;whiteSpace=wrap;html=1;" vertex="1" parent="YRsGhfHMuzotypktMuR_-6">
          <mxGeometry x="30" width="158" height="30" as="geometry">
            <mxRectangle width="158" height="30" as="alternateBounds" />
          </mxGeometry>
        </mxCell>
        <mxCell id="YRsGhfHMuzotypktMuR_-9" value="" style="shape=tableRow;horizontal=0;startSize=0;swimlaneHead=0;swimlaneBody=0;fillColor=none;collapsible=0;dropTarget=0;points=[[0,0.5],[1,0.5]];portConstraint=eastwest;top=0;left=0;right=0;bottom=0;" vertex="1" parent="YRsGhfHMuzotypktMuR_-5">
          <mxGeometry y="60" width="188" height="190" as="geometry" />
        </mxCell>
        <mxCell id="YRsGhfHMuzotypktMuR_-10" value="" style="shape=partialRectangle;connectable=0;fillColor=none;top=0;left=0;bottom=0;right=0;editable=1;overflow=hidden;whiteSpace=wrap;html=1;" vertex="1" parent="YRsGhfHMuzotypktMuR_-9">
          <mxGeometry width="30" height="190" as="geometry">
            <mxRectangle width="30" height="190" as="alternateBounds" />
          </mxGeometry>
        </mxCell>
        <mxCell id="YRsGhfHMuzotypktMuR_-11" value="&lt;br&gt;&amp;nbsp;&amp;nbsp;&lt;span style=&quot;background-color: transparent; color: light-dark(rgb(0, 0, 0), rgb(255, 255, 255));&quot;&gt;&amp;nbsp;employeeid SMALLINT,&lt;/span&gt;&lt;div&gt;&amp;nbsp; &amp;nbsp; lastname STRING ,&lt;/div&gt;&lt;div&gt;&amp;nbsp; &amp;nbsp; firstname STRING,&lt;/div&gt;&lt;div&gt;&amp;nbsp; &amp;nbsp; title STRING,&lt;/div&gt;&lt;div&gt;&amp;nbsp; &amp;nbsp; titleofcourtesy STRING,&lt;/div&gt;&lt;div&gt;&amp;nbsp; &amp;nbsp; birthdate STRING,&lt;/div&gt;&lt;div&gt;&amp;nbsp; &amp;nbsp; hiredate STRING,&lt;/div&gt;&lt;div&gt;&amp;nbsp; &amp;nbsp; address STRING,&lt;/div&gt;&lt;div&gt;&amp;nbsp; &amp;nbsp; city STRING,&lt;/div&gt;&lt;div&gt;&amp;nbsp; &amp;nbsp; region STRING,&lt;/div&gt;&lt;div&gt;&amp;nbsp; &amp;nbsp; postalcode STRING,&lt;/div&gt;&lt;div&gt;&amp;nbsp; &amp;nbsp; country STRING,&lt;/div&gt;&lt;div&gt;&amp;nbsp; &amp;nbsp; homephone STRING,&lt;/div&gt;&lt;div&gt;&amp;nbsp; &amp;nbsp; extension STRING,&lt;/div&gt;&lt;div&gt;&amp;nbsp; &amp;nbsp; notes STRING,&lt;/div&gt;&lt;div&gt;&amp;nbsp; &amp;nbsp; reportsto SMALLINT,&lt;/div&gt;&lt;div&gt;&amp;nbsp; &amp;nbsp; photopath STRING,&lt;/div&gt;&lt;div&gt;&amp;nbsp; &amp;nbsp; salary FLOAT&lt;/div&gt;" style="shape=partialRectangle;connectable=0;fillColor=none;top=0;left=0;bottom=0;right=0;align=left;spacingLeft=6;overflow=hidden;whiteSpace=wrap;html=1;" vertex="1" parent="YRsGhfHMuzotypktMuR_-9">
          <mxGeometry x="30" width="158" height="190" as="geometry">
            <mxRectangle width="158" height="190" as="alternateBounds" />
          </mxGeometry>
        </mxCell>
        <mxCell id="YRsGhfHMuzotypktMuR_-12" value="" style="shape=tableRow;horizontal=0;startSize=0;swimlaneHead=0;swimlaneBody=0;fillColor=none;collapsible=0;dropTarget=0;points=[[0,0.5],[1,0.5]];portConstraint=eastwest;top=0;left=0;right=0;bottom=0;" vertex="1" parent="YRsGhfHMuzotypktMuR_-5">
          <mxGeometry y="250" width="188" height="30" as="geometry" />
        </mxCell>
        <mxCell id="YRsGhfHMuzotypktMuR_-13" value="" style="shape=partialRectangle;connectable=0;fillColor=none;top=0;left=0;bottom=0;right=0;editable=1;overflow=hidden;whiteSpace=wrap;html=1;" vertex="1" parent="YRsGhfHMuzotypktMuR_-12">
          <mxGeometry width="30" height="30" as="geometry">
            <mxRectangle width="30" height="30" as="alternateBounds" />
          </mxGeometry>
        </mxCell>
        <mxCell id="YRsGhfHMuzotypktMuR_-14" value="" style="shape=partialRectangle;connectable=0;fillColor=none;top=0;left=0;bottom=0;right=0;align=left;spacingLeft=6;overflow=hidden;whiteSpace=wrap;html=1;" vertex="1" parent="YRsGhfHMuzotypktMuR_-12">
          <mxGeometry x="30" width="158" height="30" as="geometry">
            <mxRectangle width="158" height="30" as="alternateBounds" />
          </mxGeometry>
        </mxCell>
        <mxCell id="YRsGhfHMuzotypktMuR_-15" value="" style="shape=tableRow;horizontal=0;startSize=0;swimlaneHead=0;swimlaneBody=0;fillColor=none;collapsible=0;dropTarget=0;points=[[0,0.5],[1,0.5]];portConstraint=eastwest;top=0;left=0;right=0;bottom=0;" vertex="1" parent="YRsGhfHMuzotypktMuR_-5">
          <mxGeometry y="280" width="188" height="30" as="geometry" />
        </mxCell>
        <mxCell id="YRsGhfHMuzotypktMuR_-16" value="" style="shape=partialRectangle;connectable=0;fillColor=none;top=0;left=0;bottom=0;right=0;editable=1;overflow=hidden;whiteSpace=wrap;html=1;" vertex="1" parent="YRsGhfHMuzotypktMuR_-15">
          <mxGeometry width="30" height="30" as="geometry">
            <mxRectangle width="30" height="30" as="alternateBounds" />
          </mxGeometry>
        </mxCell>
        <mxCell id="YRsGhfHMuzotypktMuR_-17" value="" style="shape=partialRectangle;connectable=0;fillColor=none;top=0;left=0;bottom=0;right=0;align=left;spacingLeft=6;overflow=hidden;whiteSpace=wrap;html=1;" vertex="1" parent="YRsGhfHMuzotypktMuR_-15">
          <mxGeometry x="30" width="158" height="30" as="geometry">
            <mxRectangle width="158" height="30" as="alternateBounds" />
          </mxGeometry>
        </mxCell>
        <mxCell id="YRsGhfHMuzotypktMuR_-21" value="" style="shape=image;verticalLabelPosition=bottom;labelBackgroundColor=default;verticalAlign=top;aspect=fixed;imageAspect=0;image=data:image/jpeg,AAAAHGZ0eXBhdmlmAAAAAGF2aWZtaWYxbWlhZgAAAOptZXRhAAAAAAAAACFoZGxyAAAAAAAAAABwaWN0AAAAAAAAAAAAAAAAAAAAAA5waXRtAAAAAAABAAAAImlsb2MAAAAAREAAAQABAAAAAAEOAAEAAAAAAAAGWgAAACNpaW5mAAAAAAABAAAAFWluZmUCAAAAAAEAAGF2MDEAAAAAamlwcnAAAABLaXBjbwAAABNjb2xybmNseAABAA0ABoAAAAAMYXYxQ4EEDAAAAAAUaXNwZQAAAAAAAALkAAAC5AAAABBwaXhpAAAAAAMICAgAAAAXaXBtYQAAAAAAAAABAAEEAYIDBAAABmJtZGF0EgAKChkmbjuPggIaDQgyyQwRgAFFFFFA9LrNyk1oV6LMWWcCoG7e3fR+Ni4S+KmSHgWobWA8OsnC33wxTb0tvtYFa6JXhOfDifOkYB8ahze856/Nx/0uQ7VP0NF0eolKYDS3Z4yO35ldASkXEnEAmzKUBvjcFtwXF/hdjqOHY1sE1/Ap/RvaZVaKfbEltjU5CtbGIpzIHzaaf3cGF3Fnv61HhKSv+WV3OzGsjuTwFgxDWFq4LWNU+vbF98MmkWuoDEmVU07nNyJ+YCCz/rlnxpnO1UkTbT/RX0eBocjLKEkpfg48lYl+u1sDKay1AUDFbkiQ4CiqjGKk9xIav89obQaApOHaqIkQNHVAD/XnNhbEURiGN4QvcZFs/vtrrgPy5Bo/648/DIw31vFPXBnXJxriYbccwU42mC/8zgMas/V0pbGHMKenH/qtYFDRAkKbU5gL7LkBWALGDtbf04h55kkneOrf0+WmsaFl7RNj8v+JitkjB+b+t/H3EEST+K8VAPl+ApUEonRechLQNhc85Iim08QqRAgXY/kSNb2wLYDOcZZoQqrZgikVqc7V7s9D8EJJKvs8UP/w6gfB/JHNJAY20r4vEVW0UL8ASy6Cd2HmItFTTwWxoOQ8jrX9eOyCiT1CW/HYJtbPHnayjXJVQ5mmJw4gKMitGTqGJ+bvlnQRk2OZAGX6rnVU5JLenHqWRmt5Yl6b0bijmFaxdI9YvG7reXqs8Bi84kogh0a/5gEqXlUarmuuvDES7qCNYqwY4men7HJt1eWpP7qf5IHo3jachrv2RkcPcshpRnXjI8ATDDt8GERJNYmxPdGve7y35Sifo0pQN5cF56tzCtHb/qQu3QWowlpc8r3CSHo9POaicBy7tz/S/kn0MleRfXx+zIT84YdsJtkGcBOHFziUa6RSPyzuQMUb2LVteBPYWPauHgd6ZkQXsaFx6o5P7S3UMA6G0qOVPdmDuTv9oBn/9CoyTzVcjPry6JPizEHh2/p5gXu+c3RcyFwZIPlWHTNBWExVVGXip2xlKrGff0KnijCGUFKwjWAVVfukhP3D9EbnTiAxt1+5quDywkTduEuVLD3McFIvVLEssWklU5JZ39upIkTIendRAnAmONr+cheraSPoRAM0LWlqP3ZQh/U6GkD33ejxBNLOc/8/ZoUsBTiAIyAFQtsKwadn72nSzsatDHK3Pkn6ZIImXfoYcJTtKrB0/CWPja3abqSyup/v9RrDm2zacMMNt5J0DAlrHxhL/uLVpGVP1HdVd6wpglpYRk3QSPoEEp74xLvKWNRfA9jk0TFrhd7xrEWQyl3+8M2Z/3TmgQ3zEZ/GlUti3H1OShPy4KbMQsjuiVnsYkT2f4cJot1kTrLTsGdXyt0ar/3DmLlG6oYC9aUFaghC3lVNGiqKVcJWvsc2molCt6V7AvOwpGpJvXs3yrO9xHC8v/FVJKfztp2NCWRuzaerJbK2ezZbotW7y2d0O2MIfmtIJs1k/LAVk7f3FPXp5APcaFJISDeJrL9dUgLrMw2HfW6CaF3Tl2crVLh0IgAU9FtvIEHFDIIqLS06DmrjMf4qO7z40ehrsFIwbJaJWOD2lmtWRMnZzFVXB+MoWsuNRkh3bJQoO9UpJFfEAdbcJoyzu0os7vIQzKnEPiMlukpKtaH9xREZiUz3xLs4GyUUa3GKzBpKyhDstIjp+sngzsoC0nPmYPhICxjuIbasvbjnS6nHAGpnJXF3AAiXYAj6euDaWGe68CpWRkS78gJPuxWYnket4UZL2W5XKM54pVutkuk9KVIWFLYE2l9c0C94/qulW8zikz0iYDOKYCsqG0pC3uYAh1lZLD2pE01PDJ8zo0GhR92B1mQXF+6Z5nk6fcDvfTJm1ttKFx5eu0GpoOTbFjo8rH5Kw2vowGFgEbz4orf1l5cFk8vsOdWoXItTpoM98Xw8dfFSjd17PfrzKoWGsM+D/MxR6vpHkQzdvhbscB+bNeVY4zoJG+ba51e9MXOJTV33rNG6embO23bZz0jHPlsr3wEq58oodfobcA+TpVboiZdTvqz2MvU1wvwEcMyMSEYqHmWHksNOCLqFkyJKIAntRCNxao2YlvWZEYP62J2zPV7BhXhZxo95nnG9dyiV+Wa8KAXsF63VVrBFw8X0Ugxo9jCwI/7up15A;" vertex="1" parent="1">
          <mxGeometry x="1522" y="1660" width="232" height="232" as="geometry" />
        </mxCell>
        <mxCell id="YRsGhfHMuzotypktMuR_-22" value="" style="shape=image;verticalLabelPosition=bottom;labelBackgroundColor=default;verticalAlign=top;aspect=fixed;imageAspect=0;image=data:image/png,iVBORw0KGgoAAAANSUhEUgAABEAAAAI8CAMAAADGES79AAAAqFBMVEUAAABl//9Av/83yP8yw/80vOwvvfAxuvMsvuouuu0su+4st+ssuOwsuOoruOwruOort+srt+ort+srt+kqt+oqt+oqt+krtuoqtuoqt+kptukqtukqtuoqtukqtuoptukptukqtukptukptukqtukptukptukqtukptukptukptukptukptukptukptugptukptukptukptukptukptugqtukptekptehvrp6EAAAAN3RSTlMAAgQFCg0QFBgbICUqMDU7QEZLUFZdZWluc3p/hIiNlJqgpquwtbi9w8nO09fd4OXp7fL1+fv9UIT5+AAAKJlJREFUeNrt3dlC6joYhuEgo0yiIMogg4LMUxl6/3e2D5Zr2ZakTUphU3ifw70Xih2+Jn+SRggAAAAAAAAAAAAAAAAAAAAAAAAAAAAAAAAAAAAAAAAAAAAAAAAAAAAAAAAAAAAAAAAAAAAAAAAAAAAAAAAAAAAAAAAAAAAAAAAAAAAAAAAAAAAAAAAAAAAAAAAAAAAAAAAAAAAAAAAAAAAAAAAAAAAAAAAAAAAAAAAAAAAAAAAAAAAAAAAAAAAAAAAAAAAAAAAAAAAAAAAAAAAAAAAAAAAAAAAAAAAAAAAAAAAAAAAAAAAAAAAAAAAAAAAAAAAAAAAAAAAAAAAAAAAAAAAAAAAAAAAAAAAAAAAAAAAAAAAAAAAAAAAAAAAAAAAAAAAAAAAAAAAAAAAAAAAAAAAAAAAAAAAAAAAAAAAAQPzl3waz9W456b2k9D6QqvYmy916NnjLc/SAu1b+tv+x2pngD2Ta1u8nvsscQeBupfq2y6Ya9Inaxv2JfoqjCNxp72Vqe334fiDxcfSBKf0Y4C5lF7ZtliAdyQcWWY4kcH+SY1umrv5EXfqBcZJjCdydhjQObCun+sCjJf9Eg2MJ3F0HZiOPA7un+kRf8QGLTgxwb5qKOLAPijzIHVSfaHI0gTszUcWBqgpSV35gytEE7ktOGQf2QP6JgfoTOY4ncFfK6jiYyT8xU3/iieMJ3JWqOg428k9s1J+ocTyBu6KuaNi2/BM+H6hzPAEChAABQIAAIEAAECAACBACBAABAoAAAUCAACBAABAgBAgAAgRAWLn8Y+p6AiSVyz9yToBYKLQmlm3b9qz/cg0B8tKb2bZtW5NWgXMDXLmiY6s5e/6W/H8DJPk2d/yz7yLnB7hiifbefWvPq/9ngFTn7n+3/0hwjoBrlfqSbNtS/r8CpCzZeGbAVpjAtbY/vqW392f+/wiQ/Kf0n37TBgGuk2qnht1H5tIBkvnYKf5ti/MEXKPyQf2a0/fkJQMk+a5+geqhzJmKU6u2/P45mi2tg71ffKSP/u/7dLsaXnIaULa3ssYtdlM9hy+fW/yomnrOAPHWTt2+OFNxkap/u7YzXZTc/78w/amz5S/1jZ5WfzYOYEpA9AoH25e7mnq+ACmP/b/HgZMfk/hoHrUj564aeHL6979PLtQkSC///kJKaZFr2EGc1dRzBYiidspm3LFTWQZVsFoX3920zeqJ8xkE3rn2rpM5b4Coa6fBO9/hqjSlDdqR85/MAzcji9pv4/aTMxS1pa3hXzX1HAHiVzt1WHKurl9LY9Mxx8Nid5lvZV06se6J1s1r24vquQLEv3YauPMdrsi76upRXRGX+Vo8hS6SzrZGNTXyAAmqnf6yOFfX7mmvM4RGgNyUha3tMx91gGjUTuVPMVyhlLI7/EyA3KyB/i1s7zqNKAOkqVM7pYgaG23VqesJAuRmNe2oGAeImSbn6rplt/ITt28lCJDblT/EI0AOec7VdfNWUOejr16322kUfK4IAiT+vuMRIN+cqSs3cZXcq5ng25kAuQXFfRwCZM9rya79OnKerVet25kAue3a1zUFSJvzFKPLqCEIkPvxMLj+ABk8cJ7i04OZPxAg9yQ5vPYAGfImh6vnmJH4LgiQu5Jo7q85QPZNVmFfvbzjhD0SIPemNL7eABmXOD/Xr+rowQgC5P7UFtcZIIsq5yYOHBMS+wTIXVZC3jfXFyDHb2XFdeppv/qJALlVmc7uugLE8SYjXDnHq3WrBMi9Mlkde/4A+WT2enw4JjQ/ESD3qzy+lgAZs5FDnDimgRQIkHtWXVxDgMypncbL7Pfc5QiQuxa2mhphgFA7jR3Hy4TSBMidC1dNjSxAZHtq4sqtf89fkgC5e2GqqVEFCLVTAoQAiT3zamo0AULtlAAhQG6C7n4LUQYItVMChAC5FYbV1NMDZE3tlAAhQG5IxuS96acGyJbaKQFCgNwYg2rqiQFC7ZQAIUBukG41VbH1pGYvaETtlAC5rgDJPDeqWU5sBPSqqYp9i2fUTm9XpfU1+OHo6/79T4PPRjm+AVLd2La9rXOSI/Dwvg69c5zGC1fXb7zxNI6yGue2l45pgLR5m3eUMh/boEtFkdX14NppmuMbR4mJVmkrngHS+rehGX3raARVU/eKJVS5gNet9qmdxtSbXnWrGscAafgl4L1LVnvjtbVZfDYKRp8rj3zbqqqP9SKunRYaX4uNtR73qiEnjTy+ND+/J7OVtd/MR51aTu9Tue50u+gcNZZytfbndLnZ7TaL6Wer9hjB+Uk91TvD6WK9260X02Gn/pQKPCT9uTVrna3gl23PrFn36E8b6QVIL5oAST3VO8NZ4FEp9GfWtJs9MUCc2bjQvD6e37vfs8V6u9+s5uN+s3arO6GlP37HRQ7DitFnfaqpW+Wt86ju/MxfjL9+Zfi7l+/GvPOTb4yOyjmTpsZt//LnqC1cl8VT9+iAzLuVk05PqTE6Ol67UdM3Z6t/PrE80yVbXtm2bdvWs+e/a46vzSIIkHJrvNc6KvU/h2LzfFKA1DVGF10JW+tJ7oz1wPAJHQu1lWfLWaNXnj+8qaqpPnsZvkZXOy16NvJd1Uw+nXtXjEgfhs9BH/17t0z/fedcayn/act22HZItqEcs5o3lC2lwlZrP6fQ5a+/p9zydDaXmoubTg2QfFP5hpqFJ/vLf2NmkzshQF5d+82PgppGtaG6lz5tPN5WfrSOb56e0Z+YlldTO36f6UibLG3j5sNj73D0Y5r6d2d3H74v1fUm5WPPp6q864Yp7BQ/fctFh69SUB/xLGOOv2ev6/4fmtuRdU8LkPLw4HtUBmVpr6obPkBq7l/o/4rofNfy//MPX7dUhZXfyq2Uyc/I949/RMs0tuy+cTKnWubR5fh00woahvbrAUzdXfpUO2BQav+RMvzzCp+HwHvxS/oVf5/Pk3NUzNaqasCrXoBUTgmQskZKDf4F68PvWZmGDpCqO8ZnfpW2Yl9nR7Zx5Vbyo6b4C1d1o63fvNXU4I5EzdPzGRnvFZWorxRfXqsX87QKPs+Hrvqm37ta5GWN1vvSqL6T+tDaG/DQkTTbHMl4hiqIY8MoK0wV9XiTGP0AyfQ067Q/i6gKjgQPGyDP7tVfG59Dmuke9L6fPbiNYsij+iE8MytnPjuuHa1SprN0a4+ejb/6i3pCq6XRlmnobd25UL5P3HY+5d/1Vhh29EeJnrXfQyvJJcd0jI/oL5ovW9nAyX5r5EcqfIDU1rpH5ecRVlT8ZIMAqbiblhufJ11d++vZ9r59C+vMu74DqmaNgmLze7HdGgymJqu98Xq7XXw3zB+TpZFRJ/sovbQXBO7fgwMk/aX70yaa3bSHjsk7D7pJdb90FfkmwtmdX2+x1l+sfjgexn//02ree/E9lr4BkuqbHJV+KpIAeXI/Yy11/SL3bRuZxn9YN+vfbz/0r7Rg/Nj3byluA2ZypCcG57kXFCBLg9csLbVarrmR2aXozaWS4/89R33wnTMifKuBUS+mK8zMjsqsEEGAlD35od7h5nllG4r/sprAmYMhBkbOL90OnET/5t/0Mbs/+4mgi97k7fIaFfiS8aW49vzU2RmnTU4CV0ueJ0AqlvGxrpwcICX31JatuvjZDHM1dBLxDhCNhvy6furfWJsebNu2D9NaJN858abR0fw0Hnnaj3uN+muj3Rtu9NogQV/BUlzvm8CGa1k+H2s7n4xGk7k8PC33le2Yd72N+BFQ0B7PjDZAXrbmR2X7cmKAFN3X2lbZnEuoiwHWYrZWNpiH8V71pVWom72c9DtaYWZo+NROtfoLvpONK8cVt17t99VniVJjojGs49NsG9QrhbQQ6ULl9es4RpYB/ULZk3bWqeZ/gjxRqHbnsnvF1QfaBy5pDKvt6OLmLhcgtb3/Ucm/dCQ9nH3rpAApuJuCO+WdkJSuQl70X0u5pBBCJLLFalfaAxun4hwgmkVj8yFWaX4ETg45tXbqaDdptsF/hqyPru+nwSFoWEdVN/qsui6J5HPPO0IzTRp0um3bXn0cFU6KnaNTt3X1zgc+8z5P4xivHoqLBcjzUX6s2kdHJd/yHUw3DpC8Oz/2ylfUJCT5MX49umiyNUmZdRTnBNHtVYavpraMppcF1k51+5aWXxvGkzUN6RksT53/6EM3QIaSDsrRqmW/QaK8NxmWdendl3z3Fko2zhvKMVfDjnRxc8VvVe3ZAqRkHR0V6ST9xOs8ugB5dMfRQd0FP5qcsu0rnrnF7lFnaxTj4Vz9Yl3IamrLcIKqb+00+AUkv48nn5/jflqMVc3wRMPRcpjqBchMUWMreVbcqO+8jOcG2DaUl1eq5WnaLBwrTpObCNt9To4M3yQvFSCPngvVUh+VRN2KKEByc938+DgaV/dZBp3pHEwnHVwvk4HrMC8JaxlPcVd6eDOYpGN/++SQK4a+fC7t8sLvKpPNLlS2RpPuZ9RKmcaeGSVj31Hfoqcz5uxSdDULQoZSlv6FH1mAJDz5O/JtU+UGkQRI1lOyUK8N9c7mnj0FFMmnRmOG16xtNOZkvNS+Jfsp4RLEcEurtmYPZuLbAc38uxQHOgHi+6q7973Och3Py9p6ATde0tM5ckx6c04FeYruinnVnQQSZYB4rqNu0JPsI4IAyXrucnUpuuBu8uybgV2Sh6a77biP7eK6ouGwtVk1tSX/ISESxHhTzaLmtwr6e37O9LakESABox0vzgTZy1sWRXcnrWn6CNg5vucscCpcGCPdSSARBsiTq81/aAR/y/r+1ADxTjVUNxKS7paKpTVxzzPSNo9tIXVieGOaLJltqX6GaYKYb+s90SyBfAVH7Ni27eWzCA6QwFftvvsvKBNCCFdO7rTmzbjvFccf7pgKYmlcnw+FvMaEn8eD7iSQ6AIk4bpDt1pv63+2TguQtOeJ1dC9zFeaj1jPXMFOXAOkYjx3Trua2lL/DKMEMdoK74ffYmln01SnT1aolpMiOEAGwT/JWQfZ54M60wfNOehVRTPIORUkMIpy3a1tW93AVyA2tSeBRBcgruDda66DL29PCZCUZ7aAT1Ow4Lo659ojXnlXnzy+72nuGd+cmtXUlt+P0E8Qw814NZrszug/ZUm1p3Cm8ZBPjv2fOemV5kPP50ivM7Km1ndQO+tnwDLwFYgz7UkgkQVIdqOo8ugXa0wDJPmtf7m6omZtMGLuHq8fxzVA0hPz+1Nn06eW/0/QTZDqIsTXm/i2kRyPpn0isgDRai6UnW3dhN/j3WgJy1Dek3I0TQ7+Hc/fbvwsqf0HVC8UIJ3gnp9UN3SAeKeV+nVOXSX5vVG1urK3jQ7nlcpMwywCCnp1eivoB2gliHHt9M+cDf8NuZ2nLR1VgAz1PvPpFzmptWGL5t8pdKbs5t/f5JwK4t+cedN9wnf1J4FEFSAZZzVjanBUkuOQAZLwDKV3tIuIhosGXH2zeWyX1aX7Ye5S/42vW8GfD04Q89rpn4dUWvuyPml809WF1XyzQ37n089yXk+WUeequJN2fTq6IyaO7vjc955cG81+iiRAnM0yy2hObW4TKkASnwbTvJ61e85BzxM7xlu5VpdhbtTth/JJrzW9JCBBMp1dmG+1DDwPM7PKp9ZFr93f6KundyWWJkM66ub6b9+opDln41m3L1Y1mAQSUYA4M8v0qDRDBUjPoJ7mGjbbGO/Ck3O2rkbxDRCN1wvLq6nvD5r5Mf/4mBslSLKxCfONrGZwG3eoN73QKEC0nx4v6iUqzgGxTcbwStxKI2Cm9xwd6HbGvgwmgUQUINUTjkpqHSJAPKUT/6JLIVR9VxFxpRgnSMAGB2bV1OP86CSFSHYMZm7WwtRO7X03a3rSDvUoAsTS7po7Z4K/Khsn5u89+JBe845O0Vp9C+fd87TU3QTnuwwbFwqQr1OOyrt5gHiu0k//yoTzUg+zBU9qeRtLYoQQojgIc8/a42JwfrQD/odXaRLqqwz0ChFl96e+Hk8PEIMRk4Hqr3dGy9p4YqKz1PgbZ86pIOpGUke3ZvhmMgkkmgBxLlxaGR+V5NI0QDzX6Jd/frh6naHemvOquQA0FiqhxmN2zYRefugmSKIZqjE01d1pI+HpTFmt3KkBYtARqqumwVbDTAGRl62rsrhSlntSns7iJqUx4qA16hRBgNRO6yK8GQaIp/g/CGhUPNmnrlh0jpRFuWTpf/Iaqpo6SCrO+FFIHCfI8RTJ5DDMd1i+hr2qbNve9Z9OCxCDaYSOguVU1Q7Yh9gTOy9tC1c1fmhdd01PwTaY2hpRgHRPOyqZnVGANDyLm5MGqR1ylXn3Fuazn1pN/XIE9dS3VHo0vHv0no2HMD0pndqp44+UvAVl0SqeECAGTZiSqvM9M3y8+4wHzKRjGKoH+NEZmwV3+DfJCwXI/MSjMjAJEE/J5DtpcMzDTmp+8rsZ7qaa6ggJ78tSPtTFPtu27UNwBSWi2qm8FeC8b9qlkAGyNTm+jrtQ8d/DDQ05r/6srF0zDb6C/VcSLU3rfacHSC78LK3jGkNQgHiaYsGvGkztI5iK7jiqh/QtJEiYauq+KL0UJKXph5nP2LwQomQeXwPz7XlUb9BedMphAmRu8rt//8C9KtRCvYJQvhWM87/Kj5NkTyz5GuWKcZ/t9AB5OfWo5PUD5NX97NN42bGrBPId0kpzDehtV1OHqgDpBLUwPP/72/Q3T8Mc9IR6juuqW0mYBojRBtaW/G9/918eqmEj7a1MlY3BPx4lib2XDkz1zSaBRBIg7yePUSx1A6R2MFhPpagenaopboVpNfV3sdZpAZI/mP3eZciJYAm/WfLr7vPDxQOkG9QACPQt7WG8+y7fU3QZZYNjzmHmxqUCpHvypOEvzQCpeoJUZ2S+E3WA9G4mQIyrqc1oujBmu3uZ1U7dCeK7KbC96T1dOEC+Q0/YltxsjtX72b3vLPWk9EWzsllnr4aTQCIJkFFA+ynYh16APB+tm9AYNB5GHSAjcUPMqqnf0RRRvwx+pXHt1O0l4B3Ns/fsJQNkdvL0+nd5F2Pg+1R9lf/xkq8wMh8POT1AZifWUN3dDHWAVI5fP6SxNH8adYAsxE0xqaYulQe17dtg9gwNGOyePDh1a/Ns0GLf3efz5QJkqbeczUdNXkVxTAWRbHLpmBvmvIeO/yLnuwxrFwuQ5YkTPd1lWGWAPMma26vA59Mi6gDZixujX03dSS7jEBPJtDd+mUZRsC4HtkEXr4kLBcjm5AmJL/IBYmcn5egp7pzW3/32G2Zpmk4CiSRANiePUDxpBEhZ3l0fJfT/vmhsbi1AnrQXpfzuBNcymcreUt9dAUtwonmH5NNXUD9N/fK1aANkFzTcanKr7BSlvrHPyIpdfJEuyDtuG2ov+jo9QBxHJeRa1VJwgJRUC7+Dyi7bqANkeFvxUTCoSDgazS39xXQtv0G3AJ/RbNiYawY1RIeP8Q6Qknq6pHN57UgkHEdil1U3Vcq3FSCWuiER8JaGfcT5sS3fUnxkOybHxznIdpwgiuX8x8PeJnPYdp1MNH9p+cM/Qzavce7CuMpSLfWgV9W9FKSpHOKZicsFyCW6MH5n3n9++iba/Ni93lB8mL7QxzUz4DhBpC8UkkybaZh1GRtRbUtcbIz84vIjxkVU1/CMu8yfcMyCXCaEyDrXzrvG352FlMYFA+QSRVT3qKD7Mef/DtZllPGx7OdvKD9qphPJ3H98S+czsml3phPJFrXI/uT0S1e9e2Yvce4AOdswrnsqSEUROX/ORk9V3q6aTwIRcRnG9Yxfuzvavi8kc3y7ce5E6RtKD4PaqWqaYCtcfpj1Yf7cvFG+RKHwPtafIxiPiWSeg+r6O0bemkdJNanpK1ShLx4TyZzehEi4V1P45dbo5In2N6lgvphud1T3a4XLjzCL6b4KUf71+cZUc2rVtU1lHynHSRztB+fLF4vHT1pnfhblxdbaJQPkElPZvRdl1tX63pW1IttOExw/10qY5fySNGiGXDbUMv/tJ05JPU7QlqSoahXPGyAnL6ZLbJTTsB/W0iDsHY+s1OSNrrcQk0BEXBbTHTVyyq5p7cusTqcxbOHq1oR8oZBsxk0zVH6EfKFQI+LdzZ+Hh8B1CtEGyJmW8//RkfVuMtvjv+DBUVbd/g5yTUJMAhFRL+cP1dDUWM5//Ke5V9l+K+eTPdsn97BuTASvNNRKEL9ly8lQL3deRj0EVjyaBFM5a4BkNfvdSs4BrKw6XH7XTTdkHbSmbGStEGYSiIjLC4Uk9dKe/2wl2Tmbkh5hX6rcUCV0M0x+CJFohtpRahL121jKM/9CcbQB4pyt8R3m6078ZmpMjw++c9rY7+rbnOPYL/6e2HaYSSAi6lcahjoqA+0Acb5AOem6Ew7K7sk0ZLLepJDbOox85k02w+SHEKIUakvc05fXedtC7iX/u8xZA6QTaqRU2lbv+vXW55LegWPcxzm5/eW4jtC4cIB0Tzsq2b1ugLhfgJp3zYLaqPqUHf9xunuSC7mxlP/0nmao/BBCVOehFjN2c9EelXe/hX8RB8iJ2zq0fWdgO4dRfh6V37JujXvO+s8zvxL2Jo54W4fGqSfQJ0C8LzB8dtXAJsngIsg2/LzoVLGcjXd8hN3a8i1ovWIzXH4IkXw/29aWJlxjQp2zBojzjV8b40HBrCUfqv3ry9s+cdY1vhRdoZ+6ZT/saq+IN5ZaGx8Vz/v31QEyzfhfuYrmhWtXl/eQ11ima9m2/R3nLlB1FWrpT1vjhDbD5YcQIvMRqhSyinST84e5ehwm4gBxdR6MNxnpBMyefPEOxHZV5eFXb2Q6k6126QBxbWBvfFQ8KyOUATKXNACGAdOAvD0sexFuXUXupxa1je1AcKYf5kY99PW2hGyGzA8hRP4zzBez+1HO6XHeTovzBojzreeWYZP2cRcwJcE5FaQqhEhbqsKoc9mLlXYfgk3y4gFSPeGopNd6AbKUXcoZ12SgrXwxsHPsPNwM4sS/et86pt2Y7CzMXTrSXl3dDJsfQohyqGrqNBPd0XG29DfnDRDXRquGm5Q5xx2l7052NlEGwr0735u6mvIm/Ga4XiJAXC9tNTwq3kmJit+4ks8wKble97GQX1TOcZh9mDcOtELfHFciHWYj65nJ0sjmKYcoVDV1El0bJOF4tO/PGyCuit/OaESpfAisNTrmre+zruFRy3O0nBs9zNzvMixfPkBcD6Ct0WSyvKUVINuiRutTNZXe9QK+acL4+no6+ExVjIXeOWqnnhCYHmzbtg/TMOWJh/cQL47rRXd8HHeTdeYASa2Dn3jybrSzhqUqwE6d5b5nv0HfL1d5pHk8AnzRAMk4Y2Bu8GhIHU1rkv9G9cqBrkbve3ZCA1uI3DLuc9Eq56mdRtpG+jB/dVxkk8qcUyFXZw4Qd2/vWzulk2Odnvi780od+E0Rr7ieu7Pw46iRBIh79xWDJXXHpT3TAEm6WueHSmAT5GD4iEy7Mu4rjgFi2oHRrZ1GKm9c5p1E9aur6h8afYC4Rx21V1e4HpRrVcvFORXk5eA7wXPmvCVOmMkVTYBkN1rzyr3e7JMDRDy6Wr9r2aWfcN1BO6OhlOTI9fVeYpgfxbPVTqNVGhl+0agmpQ7VHaPoA8TzSnvN5T11zQ85eiaW/2Xr/IlW2EkgkQWIZzaY5kO+so8gQEQleD6Z+wUUW4PX06SG/qs146B9vtppxF7MqqntaH6ra+v6t7MHiOt9HPZBq8vQ0m16vUgP1ELSU0rJJ/HV/qcASbjqDPs3nV9dk3V7zQPEM5NEOgrlfgmipZ0gWXfrf52LY4CY7GW9qif+z6/68GZSTfVbeZVoLLaTD52umLsTnD9/gBTd130vcI/epLt3t/NpIT5Ij18j+J4INwkkugARZXdrohN8HcpXYYUIEM9eibIMTbkfbXvNSlHB/bFDPOeR6U9BvXjtVFJyautXU/1eP/Nn4GkX/BqihOvqmYrzB4h3w/fvgIOe9XTtfKdTy2JhKz0I0lfTdsX/FSDePBikjFL1pABJu+5zS9Y1LnqGi4c6M8Lq1lmazJemuwRGt3aayZeKxUeDR1Wu8lqvP+u+Qeexr/vSZcundfvvkRrwGqLMwPfmPEuAeHcHnvu2iCueV6cNjQteveDST/j16pEFSMKTkzPf71JUjQyECRBPPEjHkb0bDK8CWxM579L3QSKeAaLZK/jWqp0Wuj8NmsO4rrWmrdj+ewMsu5pThHSrqWv1j/h09sqS2nfnJnWRAMl4az29nDpOvfWMgEef5MZSnNhnycJr8f8FiHj0NJUP6uZjuq1cVx4qQDyV7S+ttt3Idx7B8drVcSqe+aG3PfBMq3uW/3S2DhbBxXLP9a/7No8Xran3Pvucuz6/biuaVqVB0CrA8wSIyHtDfduRRshj19uh2wSF8PHI5lj1T+d6xZJLBYgoeW8560MaIZmmzyrucAHiiQfpcTjuM42VN02qvjrn4ovL0liuplc7Tbe9a2f7AddM1QrZTUrUNdpNn+rPe5LhMG4c9aAe60eLcObJCwWIZKvn/aDqeUKlqscvbQ0eQczutAdW3o86sY//a4BIhmV3Xy+en5p8/jyqkh1OD5AH18WwlzUuZG/ynXcqkr+63DsuGyxycc0P2WwbT9C3UmHv6VHatE6+/dBLYo1qqs9YX1XSXhm0qsXHlBBCpIqvPUm7TDIN8VwBIiqSytR21KwWkkIIkSxUmyPJmw50loN73/O6Ut7Xae93CLPvc5QBIqqyv/n796i8NIaS47Z5PT1A3EsF7JXsdk9J3+dnDd6f839H0pKP5fcv2ajFNL75IXL+d+Khp/XceZb3Kvym5tblv3Cj+Xr1oGrq1u+cKMeu95uVqqrcEpcLEFFWNcO367XqJSla8w9egv+qv7qnTgKJOkDE81Z9VFT/a10sRhAg4snV/BnLBtcTXfXFuF6tVsoryx6mRIx1fWunWmWJ4lD1eXW3uax8WdDyVa8eXfKdwuI75BhiAfKXuGSAiKLxG57WWmMkCffP3T9qD9lskv97gIgn45fULQoikgDx9OjkiwyaBzuMXiLO+XG85Nm0duq3EdX20WA8wHi+67O6mmr5jwtnv6M4yWcMEJEznLo/0axQfOgWilyvAQk1CST6ABEFw20DhhkRUYC4i4U7+eX1HOLFftt3EXO1k2qnyYbvU6Fj+Ev/thH1phwk6qozFtTeTrSMnhbtgIs++gARiQ+TL9jVbR+42xW+vZ7qiZNAzhAgImWyqvLQ8v7FJwRIaqYRpznTB5M9LYrY64SvnYpqwDDw5sGwCvGvy6A3LSTVskxyy9kDMujGvIvLB4gQzwvd77c0WKI08Zla64mw5WmTQM4RIELUtJ/yP5PNIgoQUbB0VhzVjV5ec2gnxQ1oSWqnWnVhjUld8hxIB78uea/3FUSud9ApeEro7sI3q4hIA+S3ybYPSMcPrZ02Dh2TNQbOYbeArd4afpNgtPwe4V1Ac9ZxQez8/2VG7w1Yu1byqM11kOe45l5ZVa2FEpmuftv2uyRuQ20dpnb6qNOclD8btd5ipLv4puhpzqx0xwuSdY0I2bwngp+aRgux55otACFE4TP4avwyawRnduqptd5K0fakSSDCOeNmqn1Qghs75aHG4+dflSKjuO3HepUgef3Ib6lmsa+3w1LkOyn+j9Ifv4/Fw0DrD1N0Hrzkb6d41RxZeNdr4VUGv/fZ5sPgeZx8DWhDbXs+k8PH4SZpdkwKk8VP36vx8GX8EPvUX77V1RqQ12rDBP2pZq8WLg98g3Xbz0tPk+tLtHUbYr99upFmGzffDb43JjVxU5LV3nhtbRafDb11ba+aXdF6YOPYv3ev+U6dQuNrsbHW417VtFOZb6tLDZO677y2f6uslkYD+Zm/h26j1UnLNpSDTfNmmC0w/7YrVoFJm/v7B1qFkFfV34ZF4I4Fv5vRTrTO4GNTedqmb+6z9u8NCSvXl0j/bX5OtIdRs38/sgqa75iqDf2Cf/VRFHftSbsCKZ8Q2jQoU5//NQmF+udx6csatwPvmpf9z2Qls99X+fPbNtp/WakxOpootRs1Q25l9rLRnjjy9CdBrNCN7dJC90/9O0I70V2YLcqt8e54Zmrj+GTU/vwVK8+Y09OfIJ8ZhOPPgpy9TtE6W+tJM+4w7b483Hd85L/07/+TA8S2R5fY8+/xudEbTZfWfrOYjgadV72rKt8/HJbm+/FmO1Nravax1FO9M5wu1rvdejEddupPJ8xefOzMt/OO1q/PdVeHWfeEt+Cm2mNrpjWdOfE+tVbDujA+KrN/R+W1nFJU61a7Reeo1ZDtraxxy+hA5nvL3eKzpH9VvXdH08Vmb9u2bS0mw36rkhZ3zmzHyQgCxLY/CwLADUi8me3SEkmA2PtujkMPxN6z6TaY0QSIbVutNEcfiLWi8UzdyALEttdvSc4AEFvZbojVhtEFiG0vapwEIJ6SDSvMTR9lgNzW5D3gjlQX4W75aAPkhpYPAPejPA57w0cdIPahn+d8ADHy2A9/v0ceILa962Q5J0BMpFpb+6oCxLatZorzAsTB6+qke/0sAfK/b9MLQEdleuKdfqYAse15lbMDXLVM/+T7/GwBYttDprcDV6wwt685QAzWwwO4tPzKvu4AsXckCHClUjP72gPE3pY5T8BV+rCvP0DsGQvsgKvswOziECAhtxsAcF4dOxYBsmI+CHCFVvEIEPuFUwVcnazJzPJ2lAHyaTZ3rcO5Aq5OUX95bC+XjjJAGqJm8uqAEecKuDpl7Ru4JETEASKS7/pvbl5yroC4BsifFSlRB4gQ6bbu+88WnCvg6pS05pL/7F0bfYAIkevqbVE841wBVyevsVnLvxf7nCNAhChobYA34FwBVycV+Ab2we92cecJECHKo+AAeedcAdcn4N6dOt+Pfq4AEeIlcEFOkVMFXJ+awQvBzhcgIvG6pAcDxE5C/TKQbduzzeQZA0SIZGPj869ZjgtcpYpyqujRvgpnDRAhMh9b5qECMdOSbw4neeafOUCEeOzJa7rjB04TcKW6knmf0u1pzx4gQhQHslmwGU4ScLUae739WC4QIEI8He2O1+NtQsA1KzkHc/dd1WvQLxIgQlQnrr7UE+cHuHJP/Z91bbO2ek/aCwWIEOX+z6Duqkt8ALGQf65Vn3y3o71YgAghcpXngG8DIFYuGSAACBACBAABAoAAAUCAACBAABAgBAgAAgQAAQKAAAFAgBAgAAgQAKdIquOgLv3Am0+AvHI8gfui3odS+gYzUfUJkGcOJ3BfJso4kL+2w2/jzAKHE7gvH8o4ULy5Q73Zy5yjCdyZsioOJooPdJQB0uZoAvdmbFQCESK/U3zAeuRgAvfmSbGDbsK009PkWAL3R9onsdQ7X6en8i5PikMJ3J/E8DgNDi8+H3iU1VEXvC0ZuEupo63jtjXfDxRmxz2ePMcRuFMt9/61i1JQ5PQ9+dFlpzngfpUcjZBNU6OaUXL2e76KHEHgruUbw8X2sJn2qpqNicf613S9X02/6jmOHgAAAAAAAAAAAAAAAAAAAAAAAAAAAAAAAAAAAAAAAAAAAAAAAAAAAAAAAAAAAAAAAAAAAAAAAAAAAAAAAAAAAAAAAAAAAAAAAAAAAAAAAAAAAAAAAAAAAAAAAAAAAAAAAAAAAAAAAAAAAAAAAAAAAAAAAAAAAAAAAAAAAAAAAAAAAAAAAAAAAAAAAAAAAAAAAAAAAAAAAAAAAAAAAAAAAAAAAAAAAAAAAAAAAAAAAAAAAAAAAAAAAAAAAAAAAAAAAAAAAAAAAAAAAAAAAAAAAAAAAAAAAAAAAAAAAAAAAAAAAAAAAAAAAAAAAAAAAAAAAAAAAAAAAAAAAAAAAAAAAAAAAAAAAAAAAAAAAAAAAAAAAAAAAAAAAAAAAAAAAAAAAAAAAAAAAAAAAAAAAAAAAADcgv8AeFzaLecOLZ8AAAAASUVORK5CYII=;" vertex="1" parent="1">
          <mxGeometry x="2181" y="1244.7" width="217.97" height="114.6" as="geometry" />
        </mxCell>
        <mxCell id="YRsGhfHMuzotypktMuR_-23" value="&lt;font style=&quot;font-size: 18px;&quot;&gt;S3&lt;/font&gt;" style="text;html=1;align=center;verticalAlign=middle;whiteSpace=wrap;rounded=0;" vertex="1" parent="1">
          <mxGeometry x="1588" y="1386" width="72" height="49" as="geometry" />
        </mxCell>
        <mxCell id="YRsGhfHMuzotypktMuR_-24" value="&lt;font style=&quot;font-size: 18px;&quot;&gt;Arquivo - parquet&lt;/font&gt;" style="text;html=1;align=center;verticalAlign=middle;whiteSpace=wrap;rounded=0;" vertex="1" parent="1">
          <mxGeometry x="1562" y="1859" width="149" height="39" as="geometry" />
        </mxCell>
        <mxCell id="YRsGhfHMuzotypktMuR_-25" value="&lt;font style=&quot;font-size: 18px;&quot;&gt;COPY&lt;/font&gt;" style="text;html=1;align=center;verticalAlign=middle;whiteSpace=wrap;rounded=0;" vertex="1" parent="1">
          <mxGeometry x="2247" y="1355" width="72" height="47" as="geometry" />
        </mxCell>
        <mxCell id="YRsGhfHMuzotypktMuR_-27" value="" style="endArrow=classic;html=1;rounded=0;flowAnimation=1;fillColor=#fff2cc;strokeColor=#d6b656;strokeWidth=3;" edge="1" parent="1">
          <mxGeometry width="50" height="50" relative="1" as="geometry">
            <mxPoint x="1185" y="1306" as="sourcePoint" />
            <mxPoint x="1536" y="1306" as="targetPoint" />
          </mxGeometry>
        </mxCell>
        <mxCell id="YRsGhfHMuzotypktMuR_-28" value="" style="endArrow=classic;html=1;rounded=0;exitX=0.183;exitY=0.017;exitDx=0;exitDy=0;exitPerimeter=0;flowAnimation=1;fillColor=#d5e8d4;strokeColor=#82b366;strokeWidth=3;" edge="1" parent="1">
          <mxGeometry width="50" height="50" relative="1" as="geometry">
            <mxPoint x="1678.4560000000001" y="1663.9440000000002" as="sourcePoint" />
            <mxPoint x="1680" y="1380" as="targetPoint" />
          </mxGeometry>
        </mxCell>
        <mxCell id="YRsGhfHMuzotypktMuR_-29" value="" style="endArrow=classic;html=1;rounded=0;exitX=1;exitY=1;exitDx=0;exitDy=0;flowAnimation=1;fillColor=#fff2cc;strokeColor=#d6b656;strokeWidth=3;" edge="1" parent="1">
          <mxGeometry width="50" height="50" relative="1" as="geometry">
            <mxPoint x="1585" y="1377" as="sourcePoint" />
            <mxPoint x="1582" y="1667" as="targetPoint" />
          </mxGeometry>
        </mxCell>
        <mxCell id="YRsGhfHMuzotypktMuR_-30" value="" style="endArrow=classic;html=1;rounded=0;exitX=1;exitY=0.5;exitDx=0;exitDy=0;flowAnimation=1;fillColor=#d5e8d4;strokeColor=#82b366;strokeWidth=3;" edge="1" parent="1" source="YRsGhfHMuzotypktMuR_-4">
          <mxGeometry width="50" height="50" relative="1" as="geometry">
            <mxPoint x="1720" y="1620" as="sourcePoint" />
            <mxPoint x="1855" y="1302" as="targetPoint" />
          </mxGeometry>
        </mxCell>
        <mxCell id="YRsGhfHMuzotypktMuR_-31" value="" style="shape=image;verticalLabelPosition=bottom;labelBackgroundColor=default;verticalAlign=top;aspect=fixed;imageAspect=0;image=data:image/png,iVBORw0KGgoAAAANSUhEUgAAAOEAAADhCAMAAAAJbSJIAAAAw1BMVEX///8lLz7/mQD/kgD/lgD/lAAKGy//kQAiLDwAFCoeKTkNHTC2uLwAECgAEikTITMAFywZJTbd3uAACiXGyMuYm6D4+Pnr7O3/8eBVW2U6Qk///vv/5clGTVjBw8afoqd+gon/yY+IjJKtr7QAACBhZ3ArNUPi4+RQVmFrcHnT1NelqK3/06X/t2X/7tr/+O7/3Lf/vHL/oyr/qDx3fIOPkpj/1qz/xon/4sL/r0//v3lnbXUAABM0PUv/pC3/tV//q0ZvnCzTAAAKLklEQVR4nO2aCXOiTBPHRUAuucQjRo13TNRE45HE5HWz3/9TvcMcwAyYY1dwn6r+VT1VGweYaaa759/NUyoBAAAAAAAAAAAAAAAAAAAAAAAAAAAAAAAAAAAAAAAAAAAAAAAAAAAAAAAAAAD8l5jVx40RojGut3KaolVf7MMZqvO8Zjg99fjdDTzL9RGu5QXSYJ4cnldDbpqp+2qnBpo3eCRpSG10S6dwLSO43WXclRvjO7vi61IC3bd7sY3N/1VCDFO8sUoHfHGxzYoXDtjT6JdaO3B1bgbP2xW0kw2jYkppzMk+usQiP1XGwq3X+omBBrnD30U/TDLm8Cf1HO2KuKtkmIfx7tk1U58YPeVvbdlsqTvhoT1iT6XKHmBkzqD7+dpGVjk5ZaAkGQ160ZhuosvfW/fYSm/5gSZ9qEO9992KjdJNU4/c1SggFtk+mG7FsS3ftW0vDslJjb/IqXH37l12ocNHFDXdbJM/+2wHfS/Qe+1279ZxSOB7RVloVpze/maGp2vVRyZ75WyJzOvcPnfvXRRbkTsSRsSrrQWZIqDbZ9/XmUWz6s71zGL2cKK7wbTK70HDoSsPZuSHPtktPhCbcQT7I+5+moFscveO2KtLvAeUbu4mRcRh6XhspJN2lZro0kisUTe1khfNnchC/To50HK4H+mL8GapaVqFH/wx78QBzR79WyK7YiSFQB87M7nQTrrbTSX5euiLSOXbC1Oj+xPQvwc0spKBOA2N88mIlzzZ6MU28coqiWqLD9XLc8uFUqlu8KknBCdMo4Y30d2n7mVHyILEcOWmqKV/k3vifQbbG3owGPEVJDbd0nu4Y+ZdPEBzJ8s+C7KH7qKwtX+PvfDmmcVxIGIZgLIrsaASB2K1wl1KozIK6X8F5lsseqpc9gjBhwAKTJJJEqaT00FnAmhG83AlvvWfgAq1yMJmIAYijrbQMFfIQSQM49xJQ1oydgXWS18jWsgEjMVWSZRc6JxtU0qKAbpnXpRZ+kwiudb+ggdgSBPB/p2ykMqayBux2+IEg0d0U7gzIchioes67fGFjJwtdtdWgPCku12/3mKnWGwh3ZooEPGhh/+aG4nTD+UkHIb+e/zwm0CKMK3gbpFWN3lT7aGygr5o3fQtzz7e6YKFpSP+JToWsPYkBz02IKqCTV24ESVmW5KSRtq9fqFGzo9eqgBnJVxioSPipgHxPpJ5yB84RFlmoRKWr6caE65Jgmq1oFecAugLs3MkLCTOyPQZLgHpGdfAgSiRy0gYJhUAvlyqCLOYzvW8VAgJD0IOijDNxFqSzka1CdFnWBFQ2UIKXpvsGpY4rDRMsJAMX9jISSEn5JhlAd2yr+9H+9Hg/k4KHMtMW0hOcro72DPpidDEu0vlD/XljDir71zBSGeUvurcsPpbco/VOL03a+OpmbKQyi/ceSDVLws23AIgG1rD1vL1Ysx8JDnJpmKQf8FBUjta9kAYSJ0WbKtIIOKg1I90BLusjoOSHO/uaf+rNa5tP4qLSt4yh21hujxNnfglKl5IIGJD/AEduMGBiDtrZO/tmvi8JLVBZOMnr+I8LFivN/UqsywkV+MEig2JBomCw5uLLxG7iylaU9raYBk4N2hNFG1GTN9NW0hlTXgI4tEgOvOwGgj3gxQa/tcZZEALTjvno/82pVyiFfgZI6SHhvYKH+uJ9z9iVTA+Gvl2zudTezk39umL9NIrEvvyGFIWo0DEPpwIXpJmbVaBGKnHpdlnvcLzY52ykDYEhW8uc+ymKGmS6jceI4HozEtOdt7KICvQc4CmtHSXiIpQvrnGVLXXxC6W7PGTQBwTZed9R3LSQM/bS0m9wHfKQmpMCAg5iESnu+ArQjbg78iyv/U1gkoKO+dykeZSMWfPIt0hiBNy8En4xSQrQFIP69e45kp9hMuamWif/E8Ldh5a3MF748XCij+7E58q+PbgDAcgqbmE3m9vMk17Yuv2hPecm0iWOrGJ87YtxQWi4KbTuJLkjwQp8VL4TXN105D2fC4bs8/OTu49jWjF1rFRr9Xm44Fk4MbSkX3BDrg1jONvnTb3oPtIa4qN0XBAdw23vR/X52iK+uLeZU/x8q+fZlELRXc9x/FoM8N0W1X6gdcdJK+PNp1v8CdNF5vbzHTTtTzDcQw0B7vUF+rkXOhzLRQ2szmLRIfPb0mPeaOgmWfRc8TS8PZkC8E/FtJAHaRNNNrhzHW8Xa7PlwkN9mXbEdJH1MkSS8Nx1v+GEU9TAIuJn5xXdyvUzQYVSQ/EPvWMdnVMS3jMjjRidKMvDJTqqCBM7aNuecV9qplNAxp+uuk6eiOy6X4ipfP8Qg+bOf6tONJq49/9+9QdKD0PdNvyo61E0xiJaYpgtng/Vhy7cjttcFn9jKm8Nt71fNt2DMe2zXajoDYbTzP/l9qc1Wq12T/1fQYAAAAALktnheh0Lr2MfHhcPm3LiirLqqpsDsPupddzZl4fFFlVlDIDWaosc5hndZkX1xmW5di4CO3q/FMp2q8L2LhU1bR5CHl9/rk2iqJ95PDmPqOzlbFbKoqKiV1VfT7/bKuNUla0t9X5n3yapYZyS3lzeHgbDpfL5fDtt6LmZ2Gp8xs9XZVfCrSxs+5e8dN1lsRE+TWXCZ9Cn1HVIm1M84JNlB/zefpSwx4iF+urPK84NOW8Dv6uqhAbH3J6h19DLNzk9vzVlsSBom1zyNef0F3Ss2odLkB5ynGqN40qC7n8UtTh0VluZFUjOmao5nQcxrxGp5Kq/V4XIIS7DzLet1/4r0M4u5xvIlgd5EgiyspTvkrnKlJt2hD/gKfd5jon4llN6GC5/JaXkVfLXxpTbdoL/ukRn1h5CG+e1UFLiERk5NPr2d31cfhLjkSpWqZvkYRhEUXiusxJYlTfHJbnSzyd17eynJhAe2I2bfLOpIlFvAhVjaJq5afnv7ey0x1uZe7Z0QYivw19J4/SKZOrgyZWbqg4LX8su3/sRKv1y1aVVe6xijyMLwidVPk4x+q/R3crl1OEzYbN07L7s4TeuVoPD2VNsC6UFg/JB4VOqhWqGdebDBupmeXt03D9+OVyVt31y8dGkVPGYfsOnDwMM6n6kp85mSAbM7oMZH2hnRqy9ONtuHxedx8fryiPj93XZ1TvfWzLmha2l7LvF+xDggrVqPlJ0pO8blPxKFoa1uiyAK7ZP7lR1T5Eed9RCkwzHI8PcnY75Y9BYimjDH2Wy1qxgj9mld0S+0NUbfuclY+3ipa/mjlN90E9i5Gni5aVpuXRnvkBnfXhb41UP1W564vEIE9njRvUf7Z5qrx5uVjv4Cdg1fVDK0Mx9HAGyVcYSFse1LRAybQNGadtziFoiwfpsI8y+V6UZWl4SIbC5+0vdOy/QOfqdfny8HuDTgCkXgjoXwoWOusfitd/nM4K6zX032r1n940AAAAAAAAAAAAAAAAAAAAAAAAAAAAAAAAAAAAAAAAAAAAAAAAAAAAAAAAAACAr/g/I4i9d02jpcMAAAAASUVORK5CYII=;" vertex="1" parent="1">
          <mxGeometry x="1564.75" y="1092" width="118.5" height="118.5" as="geometry" />
        </mxCell>
        <mxCell id="YRsGhfHMuzotypktMuR_-33" value="" style="endArrow=classic;html=1;rounded=0;entryX=0;entryY=0.5;entryDx=0;entryDy=0;flowAnimation=1;fillColor=#dae8fc;strokeColor=#6c8ebf;strokeWidth=3;" edge="1" parent="1">
          <mxGeometry width="50" height="50" relative="1" as="geometry">
            <mxPoint x="1930" y="1300" as="sourcePoint" />
            <mxPoint x="2178" y="1300.2999999999997" as="targetPoint" />
          </mxGeometry>
        </mxCell>
        <mxCell id="YRsGhfHMuzotypktMuR_-32" value="" style="image;aspect=fixed;perimeter=ellipsePerimeter;html=1;align=center;shadow=0;dashed=0;spacingTop=3;image=img/lib/active_directory/security.svg;" vertex="1" parent="1">
          <mxGeometry x="1858" y="1216" width="103.95" height="165" as="geometry" />
        </mxCell>
        <mxCell id="YRsGhfHMuzotypktMuR_-34" value="&lt;font style=&quot;font-size: 18px;&quot;&gt;SECRET&lt;/font&gt;" style="text;html=1;align=center;verticalAlign=middle;whiteSpace=wrap;rounded=0;" vertex="1" parent="1">
          <mxGeometry x="1884" y="1381" width="72" height="47" as="geometry" />
        </mxCell>
        <mxCell id="YRsGhfHMuzotypktMuR_-35" value="&lt;font style=&quot;font-size: 18px;&quot;&gt;CREATE&lt;/font&gt;" style="text;html=1;align=center;verticalAlign=middle;whiteSpace=wrap;rounded=0;" vertex="1" parent="1">
          <mxGeometry x="1039" y="1559" width="72" height="47" as="geometry" />
        </mxCell>
        <mxCell id="YRsGhfHMuzotypktMuR_-37" value="&lt;font style=&quot;font-size: 28px;&quot;&gt;ARQUITETURA&lt;/font&gt;" style="text;html=1;align=center;verticalAlign=middle;whiteSpace=wrap;rounded=0;" vertex="1" parent="1">
          <mxGeometry x="1512" y="984" width="257" height="37" as="geometry" />
        </mxCell>
      </root>
    </mxGraphModel>
  </diagram>
</mxfile>
